<?xml version="1.0" encoding="utf-8"?>
<!-- Generator: Adobe Illustrator 27.5.0, SVG Export Plug-In . SVG Version: 6.00 Build 0)  -->
<svg version="1.1" xmlns="http://www.w3.org/2000/svg" xmlns:xlink="http://www.w3.org/1999/xlink" x="0px" y="0px"
	 viewBox="0 0 750 500" style="enable-background:new 0 0 750 500;" xml:space="preserve">
<g id="BACKGROUND">
</g>
<g id="OBJECTS">
	<g>
		<g>
			
				<linearGradient id="SVGID_1_" gradientUnits="userSpaceOnUse" x1="-2065.5979" y1="229.0751" x2="-1482.4269" y2="229.0751" gradientTransform="matrix(-1 0 0 1 -1399.0125 0)">
				<stop  offset="0.2973" style="stop-color:#EA8FB8"/>
				<stop  offset="0.4476" style="stop-color:#EB92BA"/>
				<stop  offset="0.5776" style="stop-color:#ED9DC1"/>
				<stop  offset="0.7001" style="stop-color:#F0AFCC"/>
				<stop  offset="0.818" style="stop-color:#F5C8DC"/>
				<stop  offset="0.9317" style="stop-color:#FBE8F0"/>
				<stop  offset="1" style="stop-color:#FFFFFF"/>
			</linearGradient>
			<path style="fill:url(#SVGID_1_);" d="M140.705,407.177c9.66,6.892,362.835,6.178,406.537,6.178
				c18.101,0,34.407,5.206,47.068-8.212c13.207-13.997,23.542-34.235,33.286-50.764c20.123-34.136,36.377-71.52,38.745-111.549
				c0.908-15.347-0.459-31.508-8.576-44.563c-8.118-13.055-24.478-21.918-39.174-17.406c-13.978,4.292-26.729,19.506-40.086,13.556
				c-8.988-4.003-11.477-15.325-13.127-25.024c-6.184-36.348-17.546-73.69-43.822-99.555
				c-26.276-25.864-70.963-35.941-100.604-14.014c-16.352,12.097-25.602,31.443-32.474,50.586
				c-6.872,19.144-12.146,39.184-23.177,56.273c-11.03,17.089-29.527,31.131-49.843,30.141c-17.835-0.87-33.073-12.814-45.85-25.288
				c-12.777-12.474-25.027-26.427-41.527-33.254c-16.5-6.826-38.964-3.558-47.15,12.312c-7.123,13.81-0.956,30.379,4.322,44.994
				c6.141,17.004,11.05,35.122,8.422,53.009c-2.628,17.887-14.464,35.461-31.987,39.914c-16.022,4.071-33.349-3.208-49.311,1.092
				c-23.691,6.381-33.973,36.82-26.628,60.23c7.346,23.41,26.961,40.679,46.695,55.258c0.002,0.001,0.004,0.003,0.005,0.004
				C135.611,403.432,138.281,405.448,140.705,407.177z"/>
			<g>
				<path style="fill:#6A59E3;" d="M548.617,408.975h33.323c0.935-3.741,3.307-6.611,5.805-9.549
					c4.512-5.309,7.809-11.644,9.569-18.385c0.333-1.274,0.598-2.689-0.005-3.86c-0.9-1.75-3.214-2.103-4.819-3.242
					c-3.562-2.527-2.688-8.31,0.153-11.628c2.84-3.318,6.99-5.224,10.166-8.222c3.176-2.998,5.249-8.153,2.657-11.669
					c-2.209-2.996-6.6-3.228-10.264-2.575c-2.336,0.416-5.111,0.95-6.779-0.738c-2.515-2.546,0.233-6.641,2.616-9.311
					c7.753-8.685,12.298-20.171,12.588-31.81c0.083-3.335-0.217-6.828-1.97-9.666c-2.718-4.399-8.409-6.201-13.56-5.754
					c-11.174,0.97-19.968,10.801-23.292,21.513c-3.323,10.713-2.311,22.226-1.275,33.394c0.196,2.114,0.381,4.315-0.37,6.301
					c-0.751,1.986-2.736,3.678-4.835,3.357c-2.32-0.355-3.633-2.792-5.519-4.188c-3.043-2.252-7.948-1.269-9.887,1.983
					c-2.932,4.916,1.034,10.838,3.287,16.1c1.501,3.506,2.242,7.335,2.157,11.148c-0.021,0.954-0.101,1.935-0.522,2.791
					c-2.307,4.685-10.02,0.554-14.565,3.127c-2.45,1.388-3.394,4.58-2.97,7.363c0.424,2.783,1.936,5.263,3.416,7.658
					C537.803,399.719,542.045,404.842,548.617,408.975z"/>
				<g>
					<path style="fill:#31177A;" d="M563.757,407.995c-0.319,0-0.579-0.258-0.58-0.578c-0.081-24.515,5.607-48.687,11.108-72.063
						c3.637-15.45,7.758-32.963,17.96-46.703c0.191-0.257,0.554-0.31,0.811-0.12c0.257,0.191,0.311,0.554,0.12,0.811
						c-10.059,13.548-14.151,30.936-17.762,46.278c-5.486,23.311-11.159,47.415-11.078,71.794c0.001,0.32-0.258,0.58-0.578,0.581
						H563.757z"/>
				</g>
				<g>
					<path style="fill:#31177A;" d="M553.959,358.049c-0.181,0-0.359-0.084-0.472-0.243c-2.485-3.481-4.831-7.126-6.971-10.835
						c-0.16-0.277-0.065-0.632,0.212-0.792c0.277-0.16,0.632-0.065,0.792,0.212c2.122,3.677,4.447,7.291,6.911,10.741
						c0.186,0.26,0.126,0.623-0.135,0.809C554.193,358.014,554.076,358.049,553.959,358.049z"/>
				</g>
				<g>
					<path style="fill:#31177A;" d="M565.889,380.136c-0.232,0-0.451-0.14-0.54-0.369c-2.675-6.868-6.327-13.298-10.856-19.112
						c-0.197-0.253-0.151-0.617,0.101-0.814c0.252-0.196,0.617-0.152,0.814,0.101c4.598,5.902,8.306,12.431,11.021,19.403
						c0.116,0.298-0.031,0.635-0.33,0.751C566.031,380.124,565.96,380.136,565.889,380.136z"/>
				</g>
				<g>
					<path style="fill:#31177A;" d="M562.026,409.108c-0.17,0-0.339-0.075-0.454-0.219c-7.713-9.671-16.562-18.443-26.303-26.071
						c-0.252-0.197-0.297-0.562-0.099-0.814c0.198-0.252,0.561-0.297,0.814-0.099c9.811,7.684,18.725,16.519,26.494,26.261
						c0.2,0.25,0.159,0.615-0.092,0.815C562.28,409.067,562.153,409.108,562.026,409.108z"/>
				</g>
				<g>
					<path style="fill:#31177A;" d="M564.647,396.025c-0.073,0-0.148-0.013-0.22-0.043c-0.297-0.121-0.438-0.46-0.317-0.757
						c8.404-20.487,21.371-36.526,39.643-49.035c0.265-0.181,0.625-0.113,0.806,0.151c0.181,0.264,0.113,0.625-0.151,0.806
						c-18.08,12.377-30.91,28.247-39.225,48.518C565.091,395.89,564.875,396.025,564.647,396.025z"/>
				</g>
				<g>
					<path style="fill:#31177A;" d="M576.38,329.654c-0.058,0-0.117-0.008-0.176-0.027c-0.305-0.097-0.474-0.424-0.377-0.729
						c1.529-4.805,4.818-11.171,9.461-14.63c0.257-0.192,0.62-0.139,0.811,0.118c0.191,0.257,0.138,0.62-0.119,0.811
						c-4.422,3.294-7.573,9.419-9.048,14.052C576.854,329.496,576.625,329.654,576.38,329.654z"/>
				</g>
				<g>
					<path style="fill:#31177A;" d="M563.787,408.576c-0.123,0-0.248-0.039-0.353-0.12c-0.254-0.195-0.301-0.559-0.106-0.813
						c5.004-6.506,10.476-12.753,16.264-18.569c0.226-0.227,0.593-0.228,0.82-0.002c0.227,0.226,0.228,0.593,0.002,0.82
						c-5.753,5.782-11.193,11.992-16.167,18.458C564.133,408.499,563.961,408.576,563.787,408.576z"/>
				</g>
				<g>
					<path style="fill:#31177A;" d="M583.165,386.915c-0.155,0-0.31-0.062-0.424-0.185c-0.218-0.234-0.205-0.601,0.029-0.819
						l5.598-5.212c0.234-0.218,0.601-0.206,0.819,0.029c0.218,0.234,0.205,0.601-0.029,0.819l-5.598,5.212
						C583.449,386.864,583.307,386.915,583.165,386.915z"/>
				</g>
			</g>
		</g>
		<g>
			<path style="fill:#B5C1FB;" d="M466.228,173.235c3.78,0.044,7.345,1.756,10.528,3.796c13.412,8.593,22.024,23.306,26.164,38.688
				c4.14,15.382,4.243,31.54,3.739,47.462c-0.208,6.563,1.04,31.135-8.89,25.388c-6.626-3.835-13.212-23.298-16.511-30.015
				c-6.518-13.272-11.132-27.479-13.674-42.044C466.97,212.995,463.247,173.201,466.228,173.235z"/>
			<path style="fill:#B5C1FB;" d="M518.03,299.156c14.516-22.376,34.698-41.043,58.137-53.77c0.628,9.02-3.284,17.758-8.129,25.392
				c-11.482,18.09-22.235,30.718-37.768,45.15c-4.422,4.108-23.009,16.316-24.264,14.224
				C502.035,323.533,514.351,304.827,518.03,299.156z"/>
			<g>
				<path style="fill:#31177A;" d="M493.598,412.395l-1.753-0.44c3.619-14.407,6.241-29.593,7.791-45.136
					c1.466-14.689,2.018-30.116,1.642-45.854c-0.353-14.76-1.534-30.225-3.51-45.963c-1.881-14.984-4.444-30.202-7.618-45.232
					c-2.525-11.958-6.289-27.548-13.049-42.079c-0.748-1.609-1.533-3.205-2.335-4.747l1.603-0.835
					c0.814,1.565,1.612,3.187,2.371,4.819c6.837,14.698,10.634,30.416,13.179,42.467c3.184,15.08,5.755,30.349,7.643,45.381
					c1.983,15.799,3.169,31.325,3.523,46.147c0.378,15.81-0.177,31.312-1.65,46.076
					C499.876,382.629,497.239,397.902,493.598,412.395z"/>
			</g>
			<g>
				<path style="fill:#31177A;" d="M501.823,349.043c-0.011,0-0.023,0-0.035-0.001c-0.498-0.019-0.887-0.439-0.868-0.937
					c0.384-9.95,5.526-21.551,15.285-34.481c13.95-18.483,28.375-37.597,48.075-50.844c0.415-0.279,0.976-0.168,1.254,0.246
					c0.279,0.414,0.169,0.975-0.245,1.254c-19.448,13.078-33.78,32.068-47.641,50.433c-9.533,12.629-14.553,23.887-14.923,33.461
					C502.707,348.661,502.306,349.043,501.823,349.043z"/>
			</g>
			<g>
				<path style="fill:#31177A;" d="M502.24,318.085c-0.119,0-0.24-0.024-0.357-0.073c-0.458-0.198-0.67-0.73-0.473-1.188
					c8.55-19.855,17.464-43.399,18.753-67.463c0.278-11.411-0.577-23.22-1.403-34.64c-0.408-5.634-0.83-11.461-1.107-17.143
					c-0.732-17.207-0.192-39.372,10.566-58.261l0.666-1.191l0.836,1.083c3.393,4.395,4.244,5.64,4.207,6.243
					c7.419,12.68,9.258,26.484,9.387,36.461c0.19,14.68-3.129,30.004-10.444,48.227c-3.555,8.856-7.103,17.537-11.413,26.358
					c-0.027,0.057-0.06,0.109-0.096,0.156c-2.475,21.818-10.533,42.863-18.293,60.884C502.923,317.88,502.59,318.085,502.24,318.085
					z M528.884,141.857c-9.654,18.127-10.125,39.179-9.425,55.638c0.276,5.656,0.697,11.472,1.104,17.095
					c0.83,11.463,1.688,23.316,1.407,34.841c-0.037,0.69-0.08,1.378-0.129,2.068c3.412-7.337,6.38-14.621,9.355-22.031
					c7.224-17.995,10.501-33.098,10.314-47.532c-0.129-9.928-1.986-23.731-9.551-36.263
					C531.293,144.98,529.806,143.355,528.884,141.857z"/>
			</g>
			<g>
				<path style="fill:#31177A;" d="M522.383,254.527l-1.797-0.196c0.386-3.548,1.168-8.279,1.997-13.287
					c0.979-5.923,1.993-12.048,2.343-16.286c1.144-13.855,1.979-27.921,2.482-41.809c0.503-13.886,0.688-27.976,0.549-41.879
					l1.807-0.018c0.139,13.931-0.046,28.049-0.55,41.962c-0.504,13.915-1.341,28.01-2.487,41.892
					c-0.356,4.313-1.375,10.475-2.361,16.433C523.542,246.322,522.763,251.028,522.383,254.527z"/>
			</g>
		</g>
		<path style="fill:#72995E;" d="M250.885,434.767c-17.582-9.502-33.848-21.767-46.533-37.211
			c-12.685-15.444-21.68-34.182-24.134-54.017c-0.918-7.42-0.945-15.03-3.211-22.156c-8.221-25.853-42.738-37.574-47.902-64.208
			c-2.127-10.969,1.372-21.83,2.895-32.623c1.553-11.011-1.491-20.744-7.208-30.231c-2.017-3.347-4.034-6.695-6.051-10.042
			c-0.696-1.155-1.41-2.367-1.501-3.712c-0.186-2.78,2.474-5.093,5.223-5.545c2.749-0.453,5.52,0.458,8.157,1.356
			c17.113,5.827,35.334,16.811,43.986,33.313c9.256,17.655,8.491,38.949,15.861,57.471c1.976,4.967,4.59,9.783,8.439,13.491
			c6.104,5.881,14.597,8.384,22.152,12.228c12.677,6.449,23.696,18.398,24.375,32.605c0.5,10.453-4.547,20.375-5.603,30.787
			c-1.232,12.144,3.094,24.33,9.714,34.585c6.62,10.255,15.478,19.78,24.218,28.301L250.885,434.767z"/>
		<g>
			<path style="fill:#F9C5E0;" d="M151.064,262.987c3.904-1.42,8.234-1.041,12.298-0.177c17.124,3.638,31.683,15.43,41.902,29.644
				c10.219,14.214,16.588,30.791,22.242,47.359c2.33,6.829,13.137,31.615,0.698,29.554c-8.3-1.375-22.617-18.838-28.613-24.467
				c-11.848-11.122-22.098-23.943-30.359-37.937C167.239,303.587,147.986,264.107,151.064,262.987z"/>
			<path style="fill:#F9C5E0;" d="M253.144,372.401c6.255-28.637,19.775-55.656,38.945-77.831
				c4.142,9.032,3.506,19.535,1.482,29.263c-4.797,23.054-10.959,40.208-21.34,61.07c-2.955,5.939-17.338,25.697-19.44,24.033
				C246.144,403.67,251.559,379.66,253.144,372.401z"/>
			<g>
				<path style="fill:#31177A;" d="M259.48,445.401c0.588-0.229,1.19-0.421,1.807-0.566c-4.052-14.553-9.121-29.413-15.118-44.238
					c-6.109-15.102-13.345-30.607-21.507-46.085c-7.765-14.723-16.327-29.427-25.448-43.704
					c-7.287-11.405-17.282-26.094-30.006-38.555c-1.425-1.395-2.873-2.753-4.305-4.036l-1.263,1.409
					c1.411,1.264,2.839,2.603,4.243,3.979c12.588,12.327,22.503,26.901,29.735,38.221c9.093,14.233,17.628,28.891,25.369,43.568
					c8.133,15.422,15.342,30.869,21.427,45.911C250.392,416.085,255.444,430.897,259.48,445.401z"/>
			</g>
			<g>
				<path style="fill:#31177A;" d="M255.562,429.999c-0.432,0.046-0.853-0.212-0.997-0.642c-3.459-10.371-2.666-24.285,2.355-41.356
					c7.181-24.412,14.605-49.655,29.725-70.906c0.303-0.426,0.893-0.525,1.32-0.223c0.426,0.303,0.525,0.894,0.222,1.319
					c-14.935,20.993-22.314,46.082-29.451,70.344c-4.911,16.693-5.71,30.226-2.376,40.224c0.166,0.496-0.102,1.031-0.598,1.197
					C255.696,429.978,255.628,429.992,255.562,429.999z"/>
			</g>
			<g>
				<path style="fill:#31177A;" d="M243.995,398c-0.048,0.005-0.096,0.006-0.145,0.004c-0.522-0.023-0.926-0.467-0.901-0.989
					c1.096-23.738,1.138-51.41-6.866-76.665c-4.139-11.846-9.596-23.661-14.873-35.087c-2.603-5.635-5.295-11.462-7.781-17.196
					c-7.42-17.405-15.455-40.402-11.712-63.987l0.212-1.41l1.22,0.752c5.187,3.201,6.526,4.149,6.719,4.768
					c12.548,10.159,19.794,23.647,23.795,33.856c5.884,15.017,8.41,32.058,7.95,53.627c-0.223,10.485-0.507,20.786-1.52,31.526
					c-0.007,0.07-0.02,0.137-0.04,0.2c5.913,23.394,5.784,48.161,4.789,69.703C244.817,397.577,244.452,397.952,243.995,398z
					 M203.298,206.354c-2.929,22.421,4.758,44.289,11.868,60.966c2.476,5.709,5.162,11.526,7.761,17.151
					c5.296,11.466,10.773,23.323,14.951,35.282c0.255,0.804,0.502,1.61,0.74,2.419c0.679-8.957,0.911-17.68,1.1-26.538
					c0.454-21.312-2.031-38.119-7.82-52.896c-3.983-10.166-11.247-23.649-23.892-33.61
					C207.049,208.673,204.83,207.555,203.298,206.354z"/>
			</g>
			<g>
				<path style="fill:#31177A;" d="M238.444,325.303c-0.978-3.797-2.007-8.964-3.096-14.434c-1.288-6.472-2.62-13.164-3.904-17.661
					c-4.192-14.685-8.786-29.475-13.653-43.959c-4.867-14.481-10.139-29.043-15.669-43.282l1.764-0.686
					c5.54,14.266,10.822,28.856,15.698,43.364c4.878,14.512,9.48,29.33,13.68,44.044c1.305,4.57,2.645,11.301,3.94,17.811
					c1.084,5.443,2.107,10.585,3.072,14.332L238.444,325.303z"/>
			</g>
		</g>
		<g>
			<path style="fill:#F9C5E0;" d="M465.903,132.058c-4.091-0.727-8.29,0.393-12.145,1.943
				c-16.242,6.533-28.552,20.656-36.171,36.417c-7.619,15.761-11.038,33.188-13.754,50.482c-1.119,7.129-7.497,33.405,4.402,29.233
				c7.939-2.784,19.035-22.451,23.973-29.029c9.755-12.997,17.645-27.391,23.372-42.599
				C456.962,174.837,469.129,132.631,465.903,132.058z"/>
			<path style="fill:#F9C5E0;" d="M384.191,257.417c-11.093-27.132-29.064-51.42-51.766-69.961
				c-2.525,9.611-0.09,19.847,3.579,29.081c8.695,21.884,17.72,37.72,31.538,56.483c3.933,5.341,21.504,22.328,23.288,20.326
				C396.471,287.013,387.002,264.294,384.191,257.417z"/>
			<g>
				<path style="fill:#31177A;" d="M389.326,384.577c-0.959-16.297-0.681-33.233,0.827-50.338
					c1.426-16.165,3.988-32.938,7.616-49.853c3.403-15.865,7.845-32.323,13.2-48.915c5.098-15.79,10.981-31.7,17.487-47.285
					c5.175-12.396,12.432-28.461,22.709-42.771c1.147-1.597,2.323-3.162,3.495-4.65l-1.487-1.171
					c-1.19,1.51-2.382,3.097-3.546,4.717c-10.388,14.466-17.705,30.657-22.919,43.146c-6.526,15.635-12.428,31.593-17.541,47.434
					c-5.376,16.652-9.833,33.172-13.25,49.1c-3.645,16.99-6.219,33.841-7.65,50.083c-1.516,17.197-1.796,34.226-0.832,50.615
					L389.326,384.577z"/>
			</g>
			<g>
				<path style="fill:#31177A;" d="M391.728,314.571c0.434-0.029,0.804-0.356,0.871-0.804c1.621-10.812-1.556-24.382-9.442-40.333
					c-11.277-22.811-22.938-46.398-41.491-64.728c-0.372-0.368-0.97-0.364-1.339,0.008c-0.367,0.372-0.363,0.971,0.008,1.338
					c18.328,18.108,29.917,41.551,41.125,64.221c7.712,15.598,10.829,28.791,9.267,39.214c-0.078,0.517,0.278,0.998,0.795,1.076
					C391.593,314.572,391.661,314.575,391.728,314.571z"/>
			</g>
			<g>
				<path style="fill:#31177A;" d="M396.626,280.319c-4.69-21.048-9.082-45.423-7.286-69.486c-0.031-0.059-0.056-0.123-0.074-0.19
					c-2.847-10.406-4.901-20.503-6.926-30.793c-4.168-21.168-4.614-38.389-1.404-54.195c2.182-10.745,6.997-25.279,17.609-37.448
					c0.084-0.643,1.239-1.807,5.798-5.854l1.072-0.951l0.451,1.352c7.748,22.588,3.794,46.625-0.518,65.048
					c-1.462,6.077-3.11,12.281-4.704,18.28c-3.231,12.164-6.572,24.742-8.609,37.124c-3.535,26.255,1.271,53.507,6.439,76.702
					c0.114,0.51-0.208,1.016-0.718,1.129c-0.048,0.011-0.096,0.018-0.143,0.021C397.154,281.089,396.729,280.782,396.626,280.319z
					 M400.537,88.81c-10.741,11.989-15.574,26.521-17.747,37.222c-3.158,15.552-2.711,32.537,1.406,53.452
					c1.711,8.693,3.442,17.246,5.654,25.952c0.096-0.837,0.2-1.674,0.313-2.51c2.056-12.5,5.409-25.123,8.651-37.33
					c1.591-5.988,3.236-12.182,4.691-18.232c4.132-17.652,7.938-40.517,1.191-62.099C403.395,86.713,401.402,88.196,400.537,88.81z"
					/>
			</g>
			<g>
				<path style="fill:#31177A;" d="M390.561,208.49c0.31-3.909,0.433-9.176,0.564-14.752c0.155-6.598,0.314-13.419,0.805-18.07
					c1.6-15.187,3.578-30.548,5.879-45.653c2.301-15.103,4.986-30.355,7.981-45.334l-1.856-0.372
					c-3.001,15.007-5.691,30.289-7.996,45.42c-2.306,15.135-4.288,30.524-5.891,45.741c-0.498,4.727-0.659,11.588-0.814,18.224
					c-0.13,5.548-0.253,10.79-0.558,14.647L390.561,208.49z"/>
			</g>
		</g>
		<g>
			<path style="fill:#FC5252;" d="M520.757,416.821c10.451-7.391,17.537-18.79,21.881-30.83c4.344-12.04,6.177-24.818,7.925-37.498
				c-7.18,1.939-14.366,3.985-21.136,7.063c-6.77,3.078-13.153,7.244-17.991,12.892c-5.798,6.769-9.109,15.33-11.321,23.964
				c-1.671,6.521-2.438,13.197-2.962,19.909L520.757,416.821z"/>
			<path style="fill:#31177A;" d="M551.119,349.466c0.438-0.426,0.449-1.127,0.023-1.565c-0.425-0.439-1.127-0.449-1.565-0.024
				c-2.947,2.861-5.783,5.843-8.527,8.911c0.375-1.806,0.585-3.644,0.608-5.506c0.008-0.612-0.482-1.114-1.094-1.121
				c-0.005,0-0.009,0-0.014,0c-0.605,0-1.099,0.486-1.107,1.093c-0.04,3.293-0.681,6.512-1.905,9.569
				c-0.002,0.005-0.001,0.01-0.003,0.014c-3.693,4.39-7.181,8.959-10.44,13.689c0.459-5.581,0.33-11.972-1.5-16.317
				c-0.237-0.564-0.885-0.826-1.45-0.591c-0.563,0.238-0.828,0.887-0.591,1.45c1.936,4.598,1.842,12.648,0.875,19.438
				c-2.982,4.582-5.749,9.302-8.298,14.132c0.875-8.184,0.199-18.273-2.813-25.872c-0.225-0.569-0.867-0.848-1.437-0.622
				c-0.568,0.226-0.846,0.869-0.621,1.437c3.917,9.88,3.711,24.181,1.249,32.299c-0.001,0.003,0,0.006-0.001,0.009
				c-1.893,4.021-3.645,8.104-5.224,12.248c-0.218,0.572,0.069,1.211,0.641,1.429c0.13,0.05,0.263,0.072,0.394,0.072
				c0.446,0,0.866-0.271,1.035-0.712c0.553-1.451,1.128-2.895,1.721-4.332c0.231-0.057,0.45-0.162,0.609-0.364
				c1.885-2.399,6.858-8.148,12.315-9.715c4.733-1.358,9.596-1.715,15.006-2.011c0.61-0.032,1.078-0.555,1.045-1.165
				c-0.034-0.611-0.569-1.119-1.166-1.044c-5.342,0.292-10.547,0.672-15.495,2.093c-3.71,1.064-7.105,3.701-9.734,6.302
				c2.258-4.943,4.746-9.787,7.457-14.509c0.058-0.051,0.128-0.082,0.176-0.146c6.085-8.137,15.76-13.532,25.883-14.43
				c0.609-0.054,1.059-0.591,1.005-1.2c-0.054-0.608-0.581-1.059-1.201-1.005c-7.415,0.658-14.603,3.592-20.469,8.187
				c0.014-0.093,0.028-0.185,0.042-0.28C533.627,368.486,541.882,358.435,551.119,349.466z"/>
		</g>
		<g>
			
				<rect x="330.037" y="251.36" transform="matrix(0.988 -0.1548 0.1548 0.988 -36.0737 56.2346)" style="fill:#F58A28;" width="26.23" height="16.91"/>
			
				<rect x="322.922" y="244.34" transform="matrix(0.988 -0.1548 0.1548 0.988 -34.6048 55.8851)" style="fill:#FAB217;" width="37.453" height="11.738"/>
			
				<ellipse transform="matrix(0.7071 -0.7071 0.7071 0.7071 -134.8969 352.1249)" style="fill:#FAB217;" cx="357.604" cy="338.897" rx="77.436" ry="77.436"/>
			<path style="fill:#FFF9F0;" d="M357.54,411.786c-11.979,0-23.92-3.026-34.532-8.749c-17.132-9.241-29.64-24.6-35.22-43.249
				c-5.58-18.649-3.564-38.354,5.677-55.486c12.74-23.62,37.341-38.293,64.203-38.293c11.979,0,23.92,3.026,34.532,8.749
				c35.367,19.076,48.62,63.368,29.544,98.735C409.003,397.113,384.401,411.786,357.54,411.786z M357.668,266.86
				c-26.548,0-50.862,14.502-63.453,37.846c-9.133,16.932-11.125,36.407-5.611,54.837c5.515,18.431,17.877,33.611,34.809,42.744
				c10.488,5.657,22.289,8.647,34.128,8.647c26.548,0,50.862-14.502,63.454-37.846c18.853-34.953,5.754-78.728-29.199-97.581
				C381.307,269.85,369.506,266.86,357.668,266.86z"/>
			<circle style="fill:#FFDCEC;" cx="357.604" cy="338.897" r="63.627"/>
			<path style="fill:#FFFAF0;" d="M387.81,282.897c-21.182-11.425-45.958-9.604-64.83,2.612
				c1.107,21.458,13.057,41.837,33.349,52.783c21.182,11.425,45.958,9.603,64.83-2.612
				C420.052,314.222,408.102,293.843,387.81,282.897z"/>
			<polygon style="fill:#423A64;" points="340.482,352.647 351.404,359.421 389.181,299.186 			"/>
			<path style="fill:#D2373A;" d="M364.875,338.649c0.59,3.768-1.986,7.3-5.753,7.89c-3.768,0.59-7.3-1.986-7.891-5.753
				c-0.59-3.768,1.986-7.3,5.753-7.891S364.285,334.881,364.875,338.649z"/>
			<path style="fill:#423A64;" d="M361.122,339.237c0.266,1.695-0.893,3.284-2.588,3.549c-1.695,0.266-3.284-0.893-3.549-2.588
				c-0.265-1.695,0.893-3.284,2.588-3.549C359.268,336.384,360.857,337.542,361.122,339.237z"/>
			
				<rect x="348.728" y="278.893" transform="matrix(0.988 -0.1547 0.1547 0.988 -40.0241 57.4902)" style="fill:#423F63;" width="1.135" height="13.921"/>
			
				<rect x="365.455" y="385.686" transform="matrix(0.988 -0.1548 0.1548 0.988 -56.3583 61.379)" style="fill:#423F63;" width="1.135" height="13.921"/>
			
				<rect x="404.409" y="330.269" transform="matrix(0.988 -0.1542 0.1542 0.988 -46.1077 67.4123)" style="fill:#423F63;" width="13.92" height="1.135"/>
			
				<rect x="373.057" y="288.411" transform="matrix(0.3288 -0.9444 0.9444 0.3288 -20.0365 549.7665)" style="fill:#423F63;" width="7.389" height="1.136"/>
			
				<rect x="396.828" y="306.002" transform="matrix(0.8496 -0.5274 0.5274 0.8496 -101.4544 257.3517)" style="fill:#423F63;" width="7.389" height="1.135"/>
			
				<rect x="326.411" y="293.081" transform="matrix(0.7987 -0.6018 0.6018 0.7987 -112.7591 256.5075)" style="fill:#423F63;" width="1.135" height="7.389"/>
			
				<rect x="309.156" y="317.098" transform="matrix(0.2417 -0.9704 0.9704 0.2417 -76.4177 543.7985)" style="fill:#423F63;" width="1.135" height="7.389"/>
			
				<rect x="337.718" y="388.358" transform="matrix(0.3291 -0.9443 0.9443 0.3291 -138.2056 583.3254)" style="fill:#423F63;" width="7.389" height="1.135"/>
			
				<rect x="313.946" y="370.767" transform="matrix(0.8496 -0.5274 0.5274 0.8496 -148.0711 223.3565)" style="fill:#423F63;" width="7.389" height="1.135"/>
			
				<rect x="390.442" y="376.313" transform="matrix(0.7986 -0.6019 0.6019 0.7986 -149.9621 311.8595)" style="fill:#423F63;" width="1.135" height="7.39"/>
			
				<rect x="407.696" y="352.296" transform="matrix(0.2418 -0.9703 0.9703 0.2418 -35.8781 666.0657)" style="fill:#423F63;" width="1.135" height="7.389"/>
			
				<rect x="297.615" y="346.997" transform="matrix(0.988 -0.1543 0.1543 0.988 -49.9701 51.1445)" style="fill:#423F63;" width="13.921" height="1.135"/>
		</g>
		<rect x="130.679" y="408.195" style="fill:#B5C1FB;" width="488.642" height="40.011"/>
		<path style="fill:#6A59E3;" d="M318.633,397.425c-4.8-11.05-9.31-23.027-11.54-34.842c-2.264-11.994-1.675-24.913,4.045-35.695
			c4.904-9.245,13.321-16.531,16.8-26.401c4.728-13.414-0.971-28.637-10.28-39.39c-5.548-6.408-12.47-11.93-15.906-19.678
			c-2.166-4.887-2.771-10.333-2.729-15.678c0.159-19.933,8.898-39.367,6.983-59.209c-1.79-18.546-14.524-35.59-28.176-47.441
			c-2.104-1.826-4.327-3.715-7.044-4.332c-2.717-0.617-6.052,0.521-6.928,3.166c-0.424,1.28-0.219,2.672-0.01,4.004
			c0.606,3.861,1.212,7.722,1.817,11.582c1.717,10.942,0.866,21.105-4.725,30.717c-5.48,9.422-12.816,18.162-14.983,29.123
			c-5.261,26.614,22.288,50.487,20.152,77.532c-0.588,7.454-3.433,14.512-5.381,21.731c-5.207,19.296-3.942,40.043,1.982,59.13
			c5.254,16.927,14.062,32.595,24.845,46.688C297.912,397.986,308.271,397.668,318.633,397.425z"/>
		<path style="fill:#FC5252;" d="M279.569,405.882c-26.699-20.98-43.949-52.127-53.847-84.607
			c-9.899-32.481-13.046-66.577-15.98-100.406c18.762,6.098,37.528,12.479,55.052,21.539c17.525,9.06,33.879,20.952,45.941,36.563
			c14.457,18.711,22.082,41.833,26.788,65.005c3.555,17.502,4.693,35.291,5.183,53.143L279.569,405.882z"/>
		<path style="fill:#6A59E3;" d="M219.866,421.491c-14.591-0.653-28.422-7.228-40.017-16.11
			c-11.594-8.882-21.232-20.02-30.728-31.117c8.089-2.564,16.25-5.031,24.648-6.25c8.398-1.219,17.095-1.154,25.222,1.286
			c9.741,2.925,18.197,9.103,25.645,16.029c5.625,5.231,10.477,11.168,15.118,17.289L219.866,421.491z"/>
		<g>
			<path style="fill:#31177A;" d="M278.453,248.303c-0.339,0.036-0.685-0.112-0.887-0.414c-8.436-12.596-9.692-29.76-3.841-52.471
				c0.437-1.694,0.895-3.385,1.354-5.076c1.399-5.154,2.846-10.484,3.59-15.827c2.185-15.704-1.172-32.835-10.566-53.914
				c-0.213-0.477,0.002-1.037,0.479-1.249c0.477-0.213,1.037,0.002,1.249,0.479c9.545,21.415,12.949,38.874,10.712,54.945
				c-0.76,5.462-2.223,10.85-3.638,16.062c-0.457,1.682-0.914,3.366-1.348,5.052c-5.709,22.158-4.537,38.823,3.581,50.945
				c0.291,0.435,0.174,1.022-0.26,1.313C278.747,248.237,278.601,248.288,278.453,248.303z"/>
		</g>
		<g>
			<g>
				<path style="fill:#31177A;" d="M487.036,418.626c-0.32-0.808-0.572-1.662-0.76-2.551c-5.54-17.941-15.726-35.877-28.866-50.765
					c-0.247-0.279-0.22-0.706,0.059-0.953c0.28-0.247,0.706-0.219,0.952,0.059c12.019,13.618,21.591,29.765,27.445,46.158
					c0.336-8.223,4.388-17.698,9.381-23.266c0.249-0.277,0.675-0.302,0.953-0.051c0.277,0.249,0.301,0.676,0.052,0.953
					c-5.915,6.594-10.413,19.087-8.655,27.571c0.248,0.805,0.486,1.608,0.715,2.412L487.036,418.626z"/>
			</g>
			<g>
				<path style="fill:#31177A;" d="M480.495,399.997c-0.325,0-0.611-0.235-0.665-0.565c-1.139-6.906-0.418-17.376,5.365-24.157
					c0.241-0.285,0.667-0.318,0.951-0.076c0.284,0.242,0.317,0.668,0.075,0.951c-5.131,6.017-6.239,15.918-5.06,23.061
					c0.061,0.368-0.189,0.715-0.556,0.776C480.569,399.995,480.532,399.997,480.495,399.997z"/>
			</g>
			<g>
				<path style="fill:#31177A;" d="M476.547,369.704c-0.115,0.034-0.224,0.088-0.311,0.184c-1.031,1.145-2.195,2.497-2.961,4.068
					c-1.139,2.332-1.309,4.967-1.338,6.746c-0.019,1.178,0.346,2.536,0.699,3.85c0.224,0.834,0.436,1.623,0.531,2.296
					c0.048,0.337,0.336,0.581,0.667,0.581c0.032,0,0.063-0.002,0.095-0.007c0.369-0.052,0.626-0.393,0.574-0.763
					c-0.107-0.755-0.329-1.582-0.564-2.458c-0.329-1.224-0.669-2.49-0.653-3.479c0.027-1.65,0.18-4.086,1.201-6.176
					c0.69-1.413,1.737-2.63,2.751-3.757c0.21-0.233,0.216-0.565,0.052-0.816C477.039,369.892,476.789,369.806,476.547,369.704z"/>
			</g>
			<g>
				<path style="fill:#31177A;" d="M467.138,374.187c-0.674-2.624-0.41-5.489,0.697-7.964h-0.045
					c-0.471-0.001-0.933-0.04-1.386-0.109c-1.067,2.646-1.282,5.65-0.574,8.409c0.006,0.024,0.721,2.462,1.109,2.826
					c0.13,0.121,0.296,0.182,0.461,0.182c0.18,0,0.36-0.072,0.493-0.214c0.23-0.246,0.241-0.619,0.04-0.876
					C467.758,376.11,467.2,374.424,467.138,374.187z"/>
				<path style="fill:#31177A;" d="M467.862,376.363l0.001,0.001L467.862,376.363z"/>
			</g>
			<g>
				<path style="fill:#31177A;" d="M492.45,416.672c-0.032,0-0.063-0.002-0.095-0.007c-0.369-0.052-0.626-0.393-0.574-0.763
					c0.802-5.675,3.389-11.114,7.288-15.315c0.253-0.274,0.681-0.29,0.954-0.036c0.273,0.254,0.289,0.681,0.036,0.954
					c-3.712,4.002-6.177,9.182-6.94,14.586C493.07,416.429,492.781,416.672,492.45,416.672z"/>
			</g>
			<g>
				<path style="fill:#31177A;" d="M481.692,403.386c-0.12,0-0.242-0.032-0.351-0.099c-4.638-2.835-10.185-4.341-15.621-4.246
					c-0.368-0.027-0.681-0.29-0.687-0.663c-0.007-0.372,0.29-0.68,0.663-0.687c5.699-0.118,11.495,1.476,16.349,4.444
					c0.318,0.195,0.418,0.61,0.224,0.928C482.141,403.271,481.919,403.386,481.692,403.386z"/>
			</g>
			<g>
				<path style="fill:#31177A;" d="M477.625,394.205c-0.057,0-0.116-0.007-0.174-0.023c-0.287-0.077-0.482-0.328-0.5-0.608
					c-0.108-0.127-0.443-0.417-1.483-1.006l-0.108-0.061c-3.962-2.267-8.445-4.831-13.275-4.831c-0.065,0-0.129,0-0.193,0.001
					c-0.392-0.017-0.679-0.293-0.684-0.665c-0.005-0.373,0.293-0.679,0.665-0.685c0.069-0.001,0.138-0.001,0.207-0.001
					c5.194,0,10.044,2.774,13.951,5.009l0.102,0.057c1.264,0.715,2.38,1.43,2.145,2.311
					C478.197,394.006,477.924,394.205,477.625,394.205z"/>
			</g>
		</g>
		<g>
			<path style="fill:#31177A;" d="M237.699,392.404c-0.349,0.037-0.706-0.123-0.904-0.441c-3.22-5.178-8.51-8.775-13.626-12.254
				c-1.322-0.898-2.641-1.796-3.926-2.718c-8.598-6.17-13.022-12.759-13.151-19.584c-0.01-0.522,0.404-0.964,0.928-0.964
				c0.523-0.01,0.954,0.406,0.964,0.928c0.117,6.196,4.276,12.279,12.362,18.082c1.272,0.913,2.578,1.8,3.887,2.691
				c5.278,3.589,10.737,7.301,14.169,12.819c0.276,0.444,0.14,1.028-0.304,1.304C237.973,392.344,237.837,392.389,237.699,392.404z"
				/>
		</g>
		<g>
			<path style="fill:#FEC5A7;" d="M453.537,282.236c4.337,1.325,8.607,0.266,12.557-1.691c4.714-2.336,10.101-6.247,13.201-11.145
				c-0.46-0.741-0.951-1.485-1.374-2.271c-1.383-2.573-2.023-5.363-2.69-8.182c-1.741-7.35-0.539-29.983-1.983-30.803
				c-1.569-0.891-4.79,18.313-6.433,18.66c-2.224,0.469-4.368,1.258-6.49,2.059c-2.446,0.923-4.89,1.863-7.231,3.027
				c-1.791,0.89-3.57,1.958-4.74,3.58c-1.608,2.229-1.827,5.161-1.698,7.907s0.829,5.603-0.011,8.22
				c-0.058,0.18-0.091,0.36-0.077,0.548c-0.676-0.085-1.329,0.051-1.995,0.188c-0.538,0.11-1.003,0.207-1.416,0.334
				C445.377,276.995,448.742,280.771,453.537,282.236z"/>
			<path style="fill:#FEC5A7;" d="M469.237,212.068c3.443,3.138,4.388,8.132,4.55,12.776c0.241,6.906-0.861,13.947-3.89,20.194
				c-3.029,6.247-8.079,11.654-14.459,14.504c-5.181,2.314-11.805,2.667-16.045-1.031c-2.544-2.219-3.424-7.124-4.338-10.361
				c-2.173-7.699-3.164-14.234-2.121-22.182c0.296-2.253,0.726-4.508,1.589-6.618c1.793-4.383,5.443-7.937,9.777-9.928
				C451.481,206.122,463.176,206.542,469.237,212.068z"/>
			<path style="fill:#1F2647;" d="M473.06,219.065c-0.762,1.175-1.132,2.568-1.784,3.806c-4.697,8.911-3.604,20.784-14.241,22.631
				c-2.767,0.481-5.343-0.103-8-0.851c-1.147-0.323-2.314-0.64-3.519-0.497c-1.524,0.181-2.896,0.971-4.25,1.636
				c-2.202,1.081-4.552,2.252-7.061,2.273c0.142,0.567,0.289,1.132,0.448,1.695c0.914,3.237-3.209,11.727-0.666,13.946
				c4.24,3.698,23.044,2.314,28.225,0c6.38-2.85,4.657-12.418,7.686-18.665c3.029-6.247,4.131-13.288,3.89-20.194
				C473.72,222.925,473.516,220.948,473.06,219.065z"/>
			<path style="fill:#D69580;" d="M442.531,240.635c-0.187-0.68-0.353-1.424-0.405-2.126c-0.094-1.247-0.397-2.465-0.505-3.713
				c-0.118-1.367-0.393-2.76-0.589-4.128c-0.033-0.226,0.301-0.359,0.397-0.13c0.422,1.006,0.436,2.181,0.67,3.242
				c0.201,0.911,0.333,1.884,0.44,2.814c0.121,1.045,0.333,2.103,0.547,3.13c0.113,0.544,0.185,1.339,0.7,1.669
				c0.596,0.382,1.507,0.212,2.143,0.037c0.519-0.143,0.804,0.655,0.287,0.784c-0.99,0.246-2.208,0.392-3.047-0.322
				C442.781,241.561,442.662,241.111,442.531,240.635z"/>
			<path style="fill:#D69580;" d="M443.667,248.591c0.471-0.001,0.719,0.362,1.093,0.573c0.746,0.422,1.381,0.577,2.224,0.236
				c0.704-0.285,1.248-0.878,1.565-1.559c0.299-0.642,0.625-1.507,0.712-2.208c0.027-0.212,0.327-0.266,0.417-0.067
				c0.313,0.694-0.08,1.774-0.343,2.446c-0.334,0.854-0.861,1.463-1.635,1.945c-0.585,0.364-1.447,0.565-2.133,0.457
				c-0.342-0.054-0.632-0.186-0.928-0.356c-0.178-0.102-0.401-0.21-0.56-0.326c-0.135-0.099-0.293-0.363-0.473-0.367
				C443.103,249.354,443.173,248.592,443.667,248.591z"/>
			<path style="fill:#04061B;" d="M448.854,233.771c0.285,0.945,1.283,1.479,2.228,1.194c0.945-0.285,1.479-1.283,1.194-2.228
				c-0.285-0.945-1.283-1.479-2.228-1.194C449.103,231.829,448.569,232.826,448.854,233.771z"/>
			<path style="fill:#04061B;" d="M434.48,232.945c0.285,0.945,1.155,1.518,1.943,1.28c0.787-0.238,1.194-1.197,0.909-2.142
				c-0.286-0.945-1.155-1.518-1.943-1.28C434.601,231.042,434.194,232.001,434.48,232.945z"/>
			<path style="fill:#EFAE95;" d="M455.464,236.706c0.923,0.337,1.843,1.085,1.829,2.067c-0.005,0.392-0.163,0.768-0.372,1.099
				c-1.04,1.641-3.194,2.161-5.136,2.21c-2.069,0.053-6.361-1.998-3.801-4.493C449.466,236.144,453.678,236.053,455.464,236.706z"/>
			<path style="fill:#EFAE95;" d="M433.025,240.614c-0.202-1.424-0.354-2.854-0.452-4.289c1.759-0.788,4.734-0.757,6.133-0.242
				c0.868,0.32,1.734,1.025,1.723,1.95c-0.004,0.369-0.151,0.723-0.347,1.034c-0.973,1.542-2.995,2.026-4.819,2.068
				C434.639,241.149,433.799,240.957,433.025,240.614z"/>
			<path style="fill:#1F2647;" d="M478.097,206.32c-1.132-3.866-6.335-7.442-10.274-8.283c-3.939-0.842-8.571,1.831-8.979,5.839
				c-1.991-0.709-3.438-2.395-4.981-3.84c-4.558-4.268-10.694-6.811-16.935-7.018c-2.866-0.095-5.909,0.355-8.137,2.16
				c-0.805,0.652-1.516,1.563-1.506,2.599c0.007,0.722,0.363,1.392,0.75,2.001c1.296,2.039,3.059,3.779,5.115,5.048
				c-3.329-0.273-6.803-0.525-9.897,0.734c-6.418,2.613-7.466,13.13,0.031,15.116c3.171,0.839,6.523-0.165,9.56-1.404
				c4.87-1.987,9.484-4.602,13.689-7.761c-1.345,1.27-2.393,2.854-3.035,4.589c-0.218,0.589-0.388,1.248-0.164,1.834
				c0.343,0.897,1.428,1.228,2.379,1.359c4.895,0.672,10.06-0.999,13.633-4.411c-0.085,1.105-0.89,1.995-1.472,2.938
				c-0.583,0.943-0.923,2.274-0.165,3.083c0.378,0.403,0.941,0.568,1.492,0.641c0.034,0.005,0.068,0.009,0.101,0.012
				c2.504,0.285,4.943-0.766,7.268-1.739c0.319-0.133,0.712-0.258,0.986-0.048c0.176,0.135,0.241,0.367,0.292,0.583
				c0.702,2.971,0.768,6.088,0.212,9.089c-0.356,1.921-2.22,5.297,0.588,3.726c0.262-0.147,0.514-0.293,0.762-0.439
				c1.29-3.168,3.534-6.009,5.976-4.574c3.284-3.539,3.36-6.732,3.922-9.71C480.056,214.486,479.229,210.186,478.097,206.32z"/>
			<g>
				<path style="fill:#EFB59E;" d="M472.738,228.111c1.08-0.29,2.241-0.309,3.311,0.015c1.957,0.592,3.482,2.365,3.859,4.374
					c0.377,2.009-0.372,4.174-1.85,5.585c-1.479,1.412-3.629,2.059-5.655,1.785c-0.672-0.091-1.341-0.281-1.911-0.649
					c-1.767-1.143-2.402-4.072-2.279-6.068C468.36,230.788,470.552,228.698,472.738,228.111z"/>
				<path style="fill:#EFAE95;" d="M468.22,234.267c0.51-0.778,1.184-1.46,1.911-1.99c1.082-0.79,2.509-1.416,3.858-0.986
					c1.627,0.518,2.602,2.354,1.788,3.916c-1.434,2.754-4.684,2.796-7.091,1.428C468.423,235.865,468.273,235.039,468.22,234.267z"
					/>
				<path style="fill:#D69580;" d="M473.145,231.269c-0.006-0.008-0.013-0.016-0.018-0.025c-0.001-0.001-0.001-0.003-0.002-0.004
					c-0.029-0.05-0.039-0.111-0.017-0.178c0.178-0.527,1.299-0.333,1.699-0.253c0.924,0.184,1.628,1.005,1.855,1.896
					c0.03,0.117-0.142,0.161-0.195,0.062c-0.293-0.552-1.057-1.295-1.667-1.437c-0.217-0.051-1.118-0.201-1.306-0.027
					c-0.103,0.095-0.25,0.069-0.334-0.017c0,0.002,0.001,0.004,0.001,0.006C473.156,231.285,473.151,231.277,473.145,231.269z"/>
				<path style="fill:#D69580;" d="M472.835,235.075c-0.125-0.702-0.012-1.389,0.395-1.98c0.088-0.127,0.277,0.01,0.22,0.142
					c-0.212,0.489-0.215,1.239-0.11,1.755c0.088,0.436,0.151,0.881,0.458,1.218c0.131,0.144,0.273,0.242,0.353,0.423
					c0.063,0.141-0.077,0.294-0.221,0.268C473.112,236.752,472.955,235.749,472.835,235.075z"/>
			</g>
			<path style="fill:#151C35;" d="M428.386,211.17c-1.122,2.648-0.819,3.195-0.606,6.062c0.382,5.139,3.354,16.325,5.788,20.867
				c-0.175-6.568,1.245-13.174,4.104-19.09c0.758-1.568,1.623-3.111,2.004-4.81c0.14-0.621,0.168-1.362,0.089-2.103
				C439.765,212.096,428.752,210.307,428.386,211.17z"/>
		</g>
		<rect x="130.679" y="432.335" style="fill:#9BADEA;" width="488.642" height="15.872"/>
		<polygon style="fill:#31177A;" points="432.63,423.957 345.939,431.232 241.06,420.926 319.264,416.683 		"/>
		<g>
			<path style="fill:#EFAE95;" d="M441.723,273.612c-7.881-4.85-18.793,2.425-23.996,19.74c-2.62,8.717-6.365,16.919-8.091,25.715
				c-0.251,1.281-8.277,24.084-18.354,52.238c-0.01-0.021-0.022-0.042-0.032-0.062c-42.161,8.791-91.602,18.839-103.266,20.535
				c-0.205,0.165-0.396,0.339-0.55,0.519c-0.616,0.716-0.712,1.102-0.432,1.895c0.025,0.072,0.034,0.144,0.045,0.217
				c0.098,0.153,0.149,0.312,0.164,0.468c0.795,0.265,1.445,0.476,1.617,0.511c1.503,0.32,3.998-0.314,5.135,0.818
				c-2.269,0.105-4.406,0.091-6.611,0.854c-0.433,0.15-0.887,0.341-1.136,0.725c-0.276,0.426-0.231,0.978-0.163,1.481
				c0.293,2.161,0.829,4.289,1.594,6.332c0.616,1.645,1.452,3.318,2.93,4.267c1.267,0.814,2.831,0.983,4.332,1.101
				c7.559,0.59,15.097,0.038,22.651,0.481c7.803,0.456,15.616,0.741,23.431,0.848c14.574,0.2,29.073-0.215,43.447-1.249
				c2.399-0.173,30.065-0.603,36.067-1.03c4.556-9.267,13.14-32.291,14.509-35.42c3.346-7.647,6.01-15.475,8.102-23.469
				c3.4-12.997,7.19-26.151,7.327-39.242C450.558,300.857,450.414,278.96,441.723,273.612z"/>
			<path style="fill:#291B7A;" d="M441.723,273.612c-6.669-5.456-18.187,0-23.996,19.74c-2.57,8.732-6.365,16.919-8.091,25.715
				c-0.251,1.281-8.277,24.084-18.354,52.238c-0.01-0.021-0.022-0.042-0.032-0.062c-22.287,4.647-46.607,9.645-66.307,13.575
				c3.086,8.354,3.361,17.999,2.54,27.108c4.501,0.178,9.004,0.306,13.508,0.368c14.574,0.2,29.073-0.215,43.447-1.249
				c2.399-0.173,30.065-0.603,36.067-1.03c4.556-9.267,13.14-32.291,14.509-35.42c3.346-7.647,6.01-15.475,8.102-23.469
				c3.4-12.997,7.19-26.151,7.327-39.242C450.558,300.857,449.621,280.073,441.723,273.612z"/>
			<g>
				<path style="fill:#FFABAB;" d="M428.184,371.012c-0.955,7.647-1.123,15.467-1.522,23.203c-0.109,2.123-0.22,4.259-0.706,6.324
					c-0.708,3.008-2.178,5.733-3.972,8.263h92.448c5.836-14.233,10.708-28.967,13.42-44.151c5.6-31.356,0.01-64.464-28.682-83.485
					c-17.014-11.279-41.508-14.117-61.07-10.13c-2.675,0.545-5.396,1.263-7.565,2.888c-3.139,2.352-4.664,6.244-5.667,10.033
					C417.229,312.84,431.813,341.959,428.184,371.012z"/>
			</g>
			<g>
				<path style="fill:#F29E9E;" d="M428.184,371.012c-0.955,7.647-1.123,15.467-1.522,23.203c-0.109,2.123-0.22,4.259-0.706,6.324
					c-0.033,0.142-0.076,0.28-0.113,0.42c2.178-1.435,4.528-2.654,6.951-3.663c7.136-2.97,14.546-3.723,21.99-5.427
					c1.86-0.426,6.909-1.275,5.787-4.061c-1.234-3.065-5.33-4.758-7.988-6.272c-4.609-2.626-12.89-7.329-9.482-13.867
					c3.21-6.156,11.358-5.056,17.156-7.013c-3.241-5.388-9.589-8.608-13.505-13.489c-4.188-5.222-6.442-11.49-7.755-17.987
					c-1.228-6.077-1.939-12.333-1.931-18.535c0.007-5.533,0.503-11.423,3.181-16.372c0.507-0.936,1.958-1.148,2.684-0.346
					c1.813,2.002,2.786,1.435,4.384-0.236c1.028-1.074,1.917-2.285,2.899-3.402c0.734-0.834,2.159-0.557,2.684,0.346
					c2.057,3.542,5.746,11.376,10.903,8.963c4.46-2.087,7.605-6.844,11.217-10.064c4.822-4.299,9.941-9.254,15.611-13.069
					c-16.061-7.3-36.046-8.787-52.53-5.427c-2.675,0.545-5.396,1.263-7.565,2.888c-3.139,2.352-4.664,6.244-5.667,10.033
					C417.229,312.84,431.813,341.959,428.184,371.012z"/>
			</g>
			<g>
				<path style="fill:#351F87;" d="M426.663,394.215c-0.109,2.123-0.22,4.259-0.706,6.324c-0.708,3.008-2.178,5.733-3.972,8.263
					h3.121c4.084-8.269,6.569-17.288,7.926-26.509c3.31-22.491,1.137-45.419,2.659-68.047c0.975-14.489,2.932-31.241,10.376-44.423
					c-2.721,0.284-5.388,0.686-7.966,1.211c-2.675,0.545-5.396,1.263-7.565,2.888c-3.139,2.352-4.664,6.244-5.667,10.033
					c-7.64,28.885,6.944,58.004,3.315,87.057C427.229,378.659,427.061,386.479,426.663,394.215z"/>
				<path style="fill:#351F87;" d="M499.17,281.165c-3.532-2.342-7.39-4.314-11.456-5.942c-3.024,4.381-5.372,9.306-7.384,14.118
					c-8.436,20.171-13.439,41.14-16.341,62.773c-2.537,18.912-5.284,37.797-7.979,56.688h58.422
					c5.836-14.233,10.708-28.967,13.42-44.151C533.452,333.294,527.862,300.186,499.17,281.165z"/>
			</g>
			<g>
				<path style="fill:#FFFFFF;" d="M440.878,324.981c-0.025-0.066-0.05-0.133-0.075-0.199
					C440.829,324.848,440.854,324.915,440.878,324.981z"/>
				<path style="fill:#FFFFFF;" d="M462.096,269.783c1.592,0.057,3.174,0.145,4.747,0.27
					C465.271,269.928,463.688,269.84,462.096,269.783z"/>
				<path style="fill:#FFFFFF;" d="M451.625,269.793c1.671-0.053,3.332-0.085,4.983-0.092
					C454.957,269.708,453.296,269.741,451.625,269.793z"/>
				<path style="fill:#FFFFFF;" d="M438.915,320.001c-0.012-0.028-0.023-0.056-0.035-0.084
					C438.892,319.945,438.904,319.973,438.915,320.001z"/>
				<path style="fill:#FFFFFF;" d="M456.9,269.7c1.627-0.004,3.245,0.018,4.853,0.071C460.145,269.718,458.528,269.696,456.9,269.7z
					"/>
				<path style="fill:#FFFFFF;" d="M442.665,330.074c-0.043-0.13-0.086-0.259-0.129-0.389
					C442.579,329.815,442.623,329.944,442.665,330.074z"/>
				<path style="fill:#FFFFFF;" d="M440.804,324.782c-0.601-1.604-1.23-3.198-1.889-4.781
					C439.574,321.583,440.203,323.177,440.804,324.782z"/>
				<path style="fill:#FFFFFF;" d="M438.88,319.917c-0.332-0.797-0.671-1.591-1.018-2.381
					C438.209,318.326,438.548,319.12,438.88,319.917z"/>
				<path style="fill:#FFFFFF;" d="M442.536,329.685c-0.525-1.577-1.077-3.145-1.658-4.704
					C441.459,326.539,442.011,328.108,442.536,329.685z"/>
				<path style="fill:#FFFFFF;" d="M443.402,332.366c-0.238-0.766-0.485-1.53-0.736-2.292c0.809,2.452,1.551,4.924,2.223,7.414
					c0.262,0.971,0.532,1.958,0.799,2.957C445.099,337.776,444.248,335.09,443.402,332.366z"/>
				<path style="fill:#FFFFFF;" d="M467.01,270.065c-0.055-0.005-0.111-0.007-0.166-0.011c0.055,0.004,0.109,0.009,0.164,0.014
					L467.01,270.065z"/>
				<path style="fill:#FFFFFF;" d="M451.42,269.8c0.068-0.002,0.137-0.005,0.205-0.007
					C451.556,269.795,451.488,269.798,451.42,269.8z"/>
				<path style="fill:#FFFFFF;" d="M456.607,269.701c0.098,0,0.195-0.001,0.293-0.001
					C456.803,269.701,456.705,269.701,456.607,269.701z"/>
				<path style="fill:#FFFFFF;" d="M461.753,269.771c0.114,0.004,0.229,0.008,0.343,0.012
					C461.982,269.779,461.868,269.775,461.753,269.771z"/>
			</g>
			<g>
				<path style="fill:#FFFFFF;" d="M440.878,324.981c-0.025-0.066-0.05-0.133-0.075-0.199
					C440.829,324.848,440.854,324.915,440.878,324.981z"/>
				<path style="fill:#FFFFFF;" d="M462.096,269.783c1.592,0.057,3.174,0.145,4.747,0.27
					C465.271,269.928,463.688,269.84,462.096,269.783z"/>
				<path style="fill:#FFFFFF;" d="M451.625,269.793c1.671-0.053,3.332-0.085,4.983-0.092
					C454.957,269.708,453.296,269.741,451.625,269.793z"/>
				<path style="fill:#FFFFFF;" d="M438.915,320.001c-0.012-0.028-0.023-0.056-0.035-0.084
					C438.892,319.945,438.904,319.973,438.915,320.001z"/>
				<path style="fill:#FFFFFF;" d="M456.9,269.7c1.627-0.004,3.245,0.018,4.853,0.071C460.145,269.718,458.528,269.696,456.9,269.7z
					"/>
				<path style="fill:#FFFFFF;" d="M442.665,330.074c-0.043-0.13-0.086-0.259-0.129-0.389
					C442.579,329.815,442.623,329.944,442.665,330.074z"/>
				<path style="fill:#FFFFFF;" d="M440.804,324.782c-0.601-1.604-1.23-3.198-1.889-4.781
					C439.574,321.583,440.203,323.177,440.804,324.782z"/>
				<path style="fill:#FFFFFF;" d="M438.88,319.917c-0.332-0.797-0.671-1.591-1.018-2.381
					C438.209,318.326,438.548,319.12,438.88,319.917z"/>
				<path style="fill:#FFFFFF;" d="M442.536,329.685c-0.525-1.577-1.077-3.145-1.658-4.704
					C441.459,326.539,442.011,328.108,442.536,329.685z"/>
				<path style="fill:#FFFFFF;" d="M443.402,332.366c-0.238-0.766-0.485-1.53-0.736-2.292c0.809,2.452,1.551,4.924,2.223,7.414
					c0.262,0.971,0.532,1.958,0.799,2.957C445.099,337.776,444.248,335.09,443.402,332.366z"/>
				<path style="fill:#FFFFFF;" d="M467.01,270.065c-0.055-0.005-0.111-0.007-0.166-0.011c0.055,0.004,0.109,0.009,0.164,0.014
					L467.01,270.065z"/>
				<path style="fill:#FFFFFF;" d="M451.42,269.8c0.068-0.002,0.137-0.005,0.205-0.007
					C451.556,269.795,451.488,269.798,451.42,269.8z"/>
				<path style="fill:#FFFFFF;" d="M456.607,269.701c0.098,0,0.195-0.001,0.293-0.001
					C456.803,269.701,456.705,269.701,456.607,269.701z"/>
				<path style="fill:#FFFFFF;" d="M461.753,269.771c0.114,0.004,0.229,0.008,0.343,0.012
					C461.982,269.779,461.868,269.775,461.753,269.771z"/>
			</g>
			<path style="fill:#485999;" d="M469.275,227.338c0.199,0.042,0.36,0.147,0.569,0.17c0.178,0.019,0.348,0.004,0.521-0.037
				c0.208-0.049,0.293,0.291,0.094,0.362c-0.409,0.146-1.089,0.219-1.376-0.189C468.987,227.509,469.105,227.302,469.275,227.338z"
				/>
			<path style="fill:#FFC2C2;" d="M453.242,282.099c1.218,2.809,3.734,8.743,5.308,12.297c0.631,1.424,2.481,1.792,3.609,0.718
				l23.213-22.108c-1.212-3.031-7.881-10.912-7.881-10.912C474.601,263.727,453.838,283.44,453.242,282.099z"/>
			<path style="fill:#FFC2C2;" d="M452.776,283.066c0.172-0.199,0.278-0.447,0.294-0.71c0.083-1.34-0.992-2.255-2.027-4.949
				c-1.071-2.788-2.39-7.543-3.509-10.713c-0.224-0.635-0.923-0.957-1.559-0.735c-1.794,0.627-3.656,2.43-4.251,4.014
				c-0.697,1.853-3.362,7.866,2.299,21.09c0.367,0.858,1.529,0.992,2.087,0.243C447.966,288.818,451.516,284.528,452.776,283.066z"
				/>
			<path style="fill:#EFAE95;" d="M518.831,298.706c-6.464-8.414-19.073,1.308-24.578,8.978c-5.44,7.579-8.207,16.61-10.86,25.406
				c-0.402,1.333-11.964,31.457-25.301,67.224c-22.649,7.444-47.59,11.939-67.626,14.985c-3.093,0.47-6.517,2.277-9.483,3.311
				c-3.557,1.24-7.103,2.531-10.536,4.088c-3.335,1.512-6.592,3.26-9.512,5.482c-1.79,1.362-6.54,4.846-6.918,7.134
				c-0.132,0.802,0.298,1.665,1.017,2.042c2.729,1.431,6.931,1.061,10.008,0.916c2.718-0.128,5.436-0.257,8.154-0.386
				c7.627-0.363,15.254-0.729,22.88-1.098c18.351-0.889,36.701-1.791,55.048-2.752c11.652-0.61,23.442-0.83,35.05-2.076
				c0.137-0.015,0.936,0,1.017-0.123c5.068-7.757,24.151-54.717,27.095-62.658c4.786-12.91,9.985-25.941,11.453-39.279
				C526.975,318.669,525.203,306.999,518.831,298.706z"/>
			<path style="fill:#352691;" d="M518.831,298.706c-6.464-8.414-19.073,1.308-24.578,8.978c-5.44,7.579-8.207,16.61-10.86,25.406
				c-0.402,1.333-11.964,31.457-25.301,67.224c-22.509,7.398-47.282,11.884-67.255,14.928c2.377,7.003,3.98,14.258,4.338,21.591
				c36.878-1.784,88.627-4.371,92.015-4.995c5.068-7.757,24.151-54.717,27.095-62.658c4.786-12.91,9.985-25.941,11.453-39.279
				C526.975,318.669,525.203,306.999,518.831,298.706z"/>
		</g>
		<g>
			<polygon style="fill:#4239B7;" points="346.832,431.133 346.36,431.185 346.837,431.232 			"/>
			<path style="fill:#4239B7;" d="M342.354,335.957l4.479,95.176l4.562-0.507l-5.138-96.48c-0.179-3.364-2.931-6.015-6.299-6.069
				l-5.761-0.092C338.586,328.091,342.147,331.571,342.354,335.957z"/>
			<polygon style="fill:#4239B7;" points="345.939,431.232 346.36,431.185 345.928,431.143 			"/>
		</g>
		<g>
			<g>
				<polygon style="fill:#FFCC0A;" points="549.127,316.861 563.75,318.17 555.902,409.216 546.693,430.02 541.28,407.907 				"/>
				<polygon style="fill:#F2A887;" points="555.902,409.216 541.279,407.914 546.693,430.02 				"/>
				<polygon style="fill:#FAB217;" points="549.514,311.815 564.182,313.121 563.331,323.055 548.663,321.749 				"/>
				<polygon style="fill:#423A64;" points="548.771,320.483 563.44,321.789 563.156,325.095 548.488,323.789 				"/>
				<polygon style="fill:#F05757;" points="550.612,421.167 544.326,420.607 546.693,430.02 				"/>
				<polygon style="fill:#FAB217;" points="541.277,407.9 548.51,408.544 555.72,324.433 548.487,323.789 				"/>
				<g>
					<polygon style="fill:#F2A887;" points="554.451,409.087 555.902,409.216 554.702,406.156 553,408.957 					"/>
					<polygon style="fill:#F2A887;" points="551.549,408.828 553,408.957 551.8,405.898 550.098,408.699 					"/>
					<polygon style="fill:#F2A887;" points="548.533,408.56 549.984,408.689 548.784,405.629 547.082,408.431 					"/>
					<polygon style="fill:#F2A887;" points="545.631,408.301 547.082,408.431 545.882,405.371 544.18,408.172 					"/>
					<polygon style="fill:#F2A887;" points="542.728,408.043 544.18,408.172 542.979,405.113 541.277,407.914 					"/>
				</g>
			</g>
			<g>
				<polygon style="fill:#B5C1FB;" points="533.42,423.414 521.315,425.099 512.736,336.355 516.806,314.586 524.841,334.669 				
					"/>
				<polygon style="fill:#F2A887;" points="512.736,336.355 524.84,334.662 516.806,314.586 				"/>
				<polygon style="fill:#F05757;" points="533.934,428.322 521.792,430.02 520.853,420.337 532.994,418.64 				"/>
				<polygon style="fill:#423A64;" points="533.114,419.875 520.972,421.572 520.66,418.35 532.801,416.652 				"/>
				<polygon style="fill:#B5C1FB;" points="515.074,323.85 520.277,323.122 516.806,314.586 				"/>
				<polygon style="fill:#9BADEA;" points="524.844,334.676 518.857,335.513 526.815,417.489 532.802,416.652 				"/>
				<g>
					<polygon style="fill:#F2A887;" points="513.937,336.187 512.736,336.355 514.214,339.043 515.138,336.019 					"/>
					<polygon style="fill:#F2A887;" points="516.339,335.851 515.138,336.019 516.617,338.707 517.541,335.683 					"/>
					<polygon style="fill:#F2A887;" points="518.836,335.502 517.634,335.67 519.113,338.358 520.037,335.334 					"/>
					<polygon style="fill:#F2A887;" points="521.238,335.166 520.037,335.334 521.515,338.022 522.439,334.998 					"/>
					<polygon style="fill:#F2A887;" points="523.641,334.83 522.439,334.998 523.918,337.686 524.842,334.662 					"/>
				</g>
			</g>
			<g>
				<polygon style="fill:#F05757;" points="543.86,423.639 531.578,424.306 528.611,321.273 534.093,296.648 540.893,320.606 				
					"/>
				<polygon style="fill:#F2A887;" points="528.611,321.273 540.893,320.598 534.093,296.648 				"/>
				<polygon style="fill:#F05757;" points="544.065,429.343 531.744,430.02 531.417,418.778 543.737,418.101 				"/>
				<polygon style="fill:#423A64;" points="543.779,419.534 531.458,420.211 531.349,416.47 543.67,415.793 				"/>
				<polygon style="fill:#F05757;" points="531.76,307.128 537.04,306.837 534.093,296.648 				"/>
				<polygon style="fill:#ED4545;" points="540.896,320.613 534.821,320.947 537.595,416.127 543.67,415.793 				"/>
				<g>
					<polygon style="fill:#F2A887;" points="529.829,321.206 528.611,321.273 529.926,324.522 531.048,321.139 					"/>
					<polygon style="fill:#F2A887;" points="532.267,321.072 531.048,321.139 532.364,324.388 533.486,321.005 					"/>
					<polygon style="fill:#F2A887;" points="534.8,320.933 533.581,321 534.897,324.249 536.019,320.866 					"/>
					<polygon style="fill:#F2A887;" points="537.238,320.799 536.019,320.866 537.335,324.115 538.457,320.732 					"/>
					<polygon style="fill:#F2A887;" points="539.676,320.665 538.457,320.732 539.772,323.981 540.895,320.598 					"/>
				</g>
			</g>
			
				<linearGradient id="SVGID_00000059278015525965741710000009840171304826312376_" gradientUnits="userSpaceOnUse" x1="566.6671" y1="402.1331" x2="507.8624" y2="402.1331">
				<stop  offset="0.391" style="stop-color:#EA8F8F"/>
				<stop  offset="1" style="stop-color:#FFFFFF"/>
			</linearGradient>
			
				<rect x="510.228" y="374.246" style="fill:url(#SVGID_00000059278015525965741710000009840171304826312376_);" width="53.955" height="55.773"/>
			<rect x="510.228" y="380.915" style="fill:#EFAE95;" width="53.955" height="15.156"/>
			<path style="opacity:0.22;fill:#E59D88;" d="M548.191,374.246c-0.359,4.197-1.425,8.374-2.778,12.159
				c-2.408,6.733-6.014,12.173-11.314,16.925c-5.718,5.126-15.086,11.967-23.87,12.845v13.845h53.955v-55.773H548.191z"/>
		</g>
		<g>
			<g>
				<path style="fill:#31177A;" d="M438.276,406.57l-1.203-0.147c0.512-4.211,2.315-8.303,5.078-11.523
					c0.311-0.362,0.639-0.725,0.969-1.091c1.666-1.845,3.388-3.752,3.252-6.007c-0.078-1.293-0.762-2.462-1.485-3.699
					c-0.223-0.381-0.445-0.761-0.649-1.146c-2.614-4.907-2.331-11.334,0.705-15.993c0.236-0.363,0.489-0.719,0.743-1.076
					c0.727-1.022,1.413-1.987,1.698-3.102c0.495-1.938-0.294-3.888-1.128-5.953c-0.291-0.721-0.592-1.465-0.833-2.208
					c-1.898-5.856-0.071-11.873,1.695-17.692c0.961-3.167,1.955-6.442,2.342-9.659c0.376-3.128,0.184-6.363-0.002-9.491
					c-0.046-0.782-0.093-1.564-0.131-2.346c-0.559-11.482,0.671-22.932,3.659-34.032l1.171,0.315
					c-2.955,10.978-4.173,22.302-3.619,33.658c0.038,0.777,0.084,1.555,0.13,2.333c0.189,3.182,0.384,6.471-0.005,9.708
					c-0.399,3.322-1.409,6.649-2.385,9.866c-1.791,5.9-3.482,11.472-1.702,16.966c0.227,0.702,0.52,1.427,0.804,2.128
					c0.871,2.155,1.772,4.383,1.178,6.706c-0.34,1.333-1.125,2.437-1.884,3.505c-0.244,0.343-0.488,0.685-0.715,1.035
					c-2.802,4.3-3.063,10.232-0.65,14.762c0.197,0.369,0.411,0.736,0.626,1.103c0.764,1.305,1.553,2.656,1.649,4.238
					c0.168,2.764-1.814,4.958-3.562,6.894c-0.324,0.358-0.644,0.713-0.949,1.068C440.462,398.73,438.759,402.594,438.276,406.57z"/>
			</g>
			<g>
				<path style="fill:#31177A;" d="M460.27,298.51l-0.342-0.776c-2.137-4.85-4.45-9.692-6.883-14.408
					c-0.987,1.613-2.011,3.251-3.007,4.843c-1.183,1.893-2.407,3.851-3.56,5.75l-0.54,0.889l-0.508-0.908
					c-3.389-6.064-5.638-12.911-6.504-19.803l1.203-0.151c0.804,6.394,2.825,12.749,5.86,18.447c0.992-1.62,2.021-3.266,3.021-4.866
					c1.184-1.893,2.407-3.85,3.56-5.749l0.559-0.92l0.497,0.954c2.496,4.789,4.872,9.716,7.068,14.658
					c7.957-7.354,15.869-14.958,23.529-22.614c0.057-0.057,0.114-0.219,0.11-0.285c0.002,0.028,0.031,0.127,0.137,0.208
					c0.105,0.081,0.222,0.093,0.29,0.08l-0.236-1.189c0.376-0.076,0.733,0.087,0.907,0.413c0.267,0.5,0.034,1.247-0.351,1.631
					c-7.871,7.866-16.008,15.679-24.187,23.222L460.27,298.51z"/>
			</g>
			<g>
				<path style="fill:#31177A;" d="M452.291,280.411l-0.228-0.41c-2.296-4.131-4.071-8.543-5.275-13.112l1.172-0.309
					c1.138,4.316,2.796,8.49,4.931,12.411c1.681-0.523,3.616-1.575,4.663-2.556l18.164-17.014l0.829,0.885l-18.164,17.014
					c-1.462,1.37-3.943,2.532-5.637,2.973L452.291,280.411z"/>
			</g>
			<g>
				<path style="fill:#31177A;" d="M475.371,362.655l-1.193-0.216c4.277-23.663,14.368-46.182,29.183-65.121l0.955,0.747
					C489.622,316.85,479.613,339.185,475.371,362.655z"/>
			</g>
			<g>
				<path style="fill:#31177A;" d="M460.351,400.113l-1.199-0.179c1.452-9.71,4.853-19.314,9.836-27.774l0.049-0.086l1.066,0.578
					l-0.071,0.125C465.128,381.103,461.78,390.556,460.351,400.113z"/>
			</g>
			<g>
				<path style="fill:#31177A;" d="M391.822,415.354l-0.26-1.184l58.637-12.878c2.352-0.517,5.019-1.102,7.619-0.583
					c5.156,1.031,8.41,5.92,11.055,10.423l-1.046,0.615c-2.627-4.471-5.582-8.916-10.246-9.848
					c-2.353-0.471-4.886,0.087-7.122,0.578L391.822,415.354z"/>
			</g>
			<g>
				<path style="fill:#31177A;" d="M473.195,409.757c-1.864-2.576-3.898-5.074-6.046-7.426c-0.872-0.955-1.92-1.591-2.671-1.622
					c-0.321-0.009-0.582,0.083-0.806,0.291l-0.828-0.886c0.459-0.429,1.04-0.642,1.681-0.617c1.616,0.064,3.101,1.559,3.518,2.015
					c2.179,2.385,4.242,4.92,6.133,7.533L473.195,409.757z"/>
			</g>
			<g>
				<path style="fill:#31177A;" d="M405.084,381.516l-1.201-0.169c0.325-2.299-2.192-4.058-2.971-4.542
					c-0.491-0.305-1.019-0.594-1.53-0.874c-1.406-0.77-2.859-1.566-3.915-2.863c-2.618-3.216-1.636-7.844-0.33-11.947l21.699-68.201
					l1.156,0.368l-21.699,68.201c-1.268,3.986-2.132,8.053,0.115,10.814c0.906,1.113,2.194,1.818,3.558,2.565
					c0.525,0.288,1.068,0.585,1.587,0.908C404.052,377.328,405.372,379.475,405.084,381.516z"/>
			</g>
			<g>
				<path style="fill:#31177A;" d="M398.384,385.033c-2.033-3.747-4.296-7.423-6.728-10.926l0.996-0.691
					c2.457,3.539,4.745,7.253,6.798,11.04L398.384,385.033z"/>
			</g>
			<g>
				<path style="fill:#31177A;" d="M350.67,381.022l-0.355-1.159c12.945-3.968,26.25-7.285,39.546-9.858l0.23,1.19
					C376.838,373.76,363.575,377.066,350.67,381.022z"/>
			</g>
			<g>
				<line style="fill:#31177A;" x1="510.085" y1="375.03" x2="565.171" y2="375.03"/>
				<rect x="510.085" y="374.424" style="fill:#31177A;" width="55.085" height="1.212"/>
			</g>
		</g>
		<path style="fill:#352691;" d="M346.837,431.232l-104.878-10.306l-23.923-87.904c-1.07-3.931,1.948-7.783,6.021-7.685
			l110.14,2.648c4.389,0.105,7.951,3.586,8.157,7.972L346.837,431.232z"/>
		<g>
			<g>
				<path style="fill:#D6ECE1;" d="M234.308,433.013h-49.674c-6.335,0-11.47-5.135-11.47-11.47v-37.525
					c0-6.335,5.135-11.47,11.47-11.47h49.674c9.997,0,11.47,1.559,11.47,11.47v37.525
					C245.778,432.154,244.457,433.013,234.308,433.013z"/>
				<path style="fill:#FFFAF0;" d="M221.883,436.366h-34.774c-10.449,0-18.92-8.471-18.92-18.92v-25.977
					c0-10.449,8.471-18.92,18.92-18.92h34.774c10.449,0,18.92,8.471,18.92,18.92v25.977
					C240.803,427.895,232.332,436.366,221.883,436.366z"/>
				<polygon style="opacity:0.4;fill:#D6ECE1;" points="241.083,387.934 168.188,423.105 168.188,384.367 241.083,384.367 				"/>
				<path style="fill:#FAB217;" d="M240.705,384.364h-72.518v-7.148c0-2.953,2.394-5.346,5.346-5.346h60.269
					c3.812,0,6.903,3.09,6.903,6.903V384.364z"/>
				<g>
					<circle style="fill:#F58A28;" cx="204.395" cy="376.106" r="2.803"/>
					<path style="fill:#FFFAF0;" d="M204.386,377.339L204.386,377.339c-0.767,0-1.395-0.628-1.395-1.395v-5.301
						c0-0.767,0.628-1.395,1.395-1.395l0,0c0.767,0,1.395,0.628,1.395,1.395v5.301C205.781,376.711,205.153,377.339,204.386,377.339
						z"/>
				</g>
				<g>
					<g>
						<g>
							<circle style="fill:#F58A28;" cx="191.106" cy="376.106" r="2.803"/>
							<path style="fill:#FFFAF0;" d="M191.097,377.339L191.097,377.339c-0.767,0-1.395-0.628-1.395-1.395v-5.301
								c0-0.767,0.628-1.395,1.395-1.395l0,0c0.767,0,1.395,0.628,1.395,1.395v5.301
								C192.492,376.711,191.864,377.339,191.097,377.339z"/>
						</g>
					</g>
					<g>
						<g>
							<path style="fill:#F58A28;" d="M233.69,376.106c0,1.548-1.255,2.803-2.803,2.803c-1.548,0-2.803-1.255-2.803-2.803
								s1.255-2.803,2.803-2.803C232.435,373.303,233.69,374.558,233.69,376.106z"/>
							<path style="fill:#FFFAF0;" d="M230.879,377.339L230.879,377.339c-0.767,0-1.395-0.628-1.395-1.395v-5.301
								c0-0.767,0.628-1.395,1.395-1.395l0,0c0.767,0,1.395,0.628,1.395,1.395v5.301
								C232.273,376.711,231.646,377.339,230.879,377.339z"/>
						</g>
						<g>
							<circle style="fill:#F58A28;" cx="217.683" cy="376.106" r="2.803"/>
							<path style="fill:#FFFAF0;" d="M217.675,377.339L217.675,377.339c-0.767,0-1.395-0.628-1.395-1.395v-5.301
								c0-0.767,0.628-1.395,1.395-1.395l0,0c0.767,0,1.395,0.628,1.395,1.395v5.301
								C219.07,376.711,218.442,377.339,217.675,377.339z"/>
						</g>
					</g>
				</g>
				<g>
					<path style="fill:#D0D2D3;" d="M234.058,430.541h-59.327v-40.918h59.327V430.541z M175.042,430.23h58.706v-40.297h-58.706
						V430.23z"/>
					<g>
						<rect x="204.24" y="389.953" style="fill:#D0D2D3;" width="0.311" height="40.433"/>
						<g>
							<rect x="194.438" y="389.953" style="fill:#D0D2D3;" width="0.31" height="40.433"/>
							<rect x="184.29" y="389.953" style="fill:#D0D2D3;" width="0.31" height="40.433"/>
							<rect x="224.189" y="389.953" style="fill:#D0D2D3;" width="0.31" height="40.433"/>
							<rect x="214.04" y="389.953" style="fill:#D0D2D3;" width="0.31" height="40.433"/>
						</g>
						<rect x="175.099" y="409.926" style="fill:#D0D2D3;" width="58.803" height="0.31"/>
						<rect x="175.099" y="399.283" style="fill:#D0D2D3;" width="58.803" height="0.311"/>
						<rect x="175.099" y="420.72" style="fill:#D0D2D3;" width="58.803" height="0.31"/>
					</g>
				</g>
			</g>
			<path style="fill:#F05757;" d="M222.671,407.921c0.282-2.052,1.137-3.81,2.574-5.301c1.813-1.88,5.184-3.246,7.338-1.168
				c2.038,1.967,0.914,4.781-0.659,6.583c-1.623,1.859-4.116,2.723-6.512,2.119c-0.455-0.115-1.422,0.56-0.711,0.739
				c2.691,0.679,4.737-0.085,6.846-1.847c2.333-1.95,4.287-5.072,2.413-7.776c-1.707-2.463-5.402-1.825-7.611-0.522
				c-2.687,1.585-4.461,4.195-4.887,7.29C221.386,408.593,222.605,408.401,222.671,407.921L222.671,407.921z"/>
			<g>
				<path style="fill:#F05757;" d="M186.68,402.499c1.611,1.688,3.097,3.479,4.459,5.374c0.275,0.382,1.43-0.047,1.107-0.497
					c-1.362-1.895-2.848-3.686-4.459-5.374C187.457,401.656,186.315,402.117,186.68,402.499L186.68,402.499z"/>
				<path style="fill:#F05757;" d="M187.107,406.863c1.977-1.379,3.954-2.758,5.932-4.138c0.666-0.464-0.372-0.594-0.74-0.338
					c-1.977,1.379-3.954,2.758-5.932,4.138C185.701,406.99,186.739,407.12,187.107,406.863L187.107,406.863z"/>
			</g>
			<g>
				<path style="fill:#F05757;" d="M196.908,423.724c1.611,1.688,3.097,3.479,4.459,5.374c0.275,0.382,1.43-0.047,1.107-0.497
					c-1.362-1.895-2.848-3.686-4.459-5.374C197.685,422.882,196.543,423.342,196.908,423.724L196.908,423.724z"/>
				<path style="fill:#F05757;" d="M197.334,428.089c1.977-1.379,3.954-2.758,5.932-4.138c0.666-0.465-0.372-0.594-0.74-0.338
					c-1.977,1.379-3.954,2.758-5.932,4.138C195.929,428.215,196.967,428.345,197.334,428.089L197.334,428.089z"/>
			</g>
			<g>
				<path style="fill:#F05757;" d="M197.154,391.558c1.611,1.688,3.098,3.479,4.459,5.374c0.275,0.382,1.43-0.047,1.107-0.497
					c-1.362-1.895-2.848-3.686-4.459-5.374C197.932,390.716,196.79,391.176,197.154,391.558L197.154,391.558z"/>
				<path style="fill:#F05757;" d="M197.581,395.923c1.977-1.379,3.954-2.758,5.932-4.138c0.666-0.465-0.372-0.594-0.739-0.338
					c-1.977,1.379-3.955,2.758-5.932,4.138C196.175,396.049,197.214,396.179,197.581,395.923L197.581,395.923z"/>
			</g>
			<g>
				<path style="fill:#F05757;" d="M226.462,392.019c1.611,1.688,3.097,3.479,4.459,5.374c0.275,0.382,1.43-0.047,1.107-0.497
					c-1.362-1.895-2.848-3.686-4.459-5.374C227.239,391.176,226.097,391.637,226.462,392.019L226.462,392.019z"/>
				<path style="fill:#F05757;" d="M226.888,396.383c1.977-1.379,3.954-2.758,5.932-4.138c0.666-0.464-0.372-0.594-0.739-0.338
					c-1.977,1.379-3.955,2.758-5.932,4.138C225.483,396.51,226.521,396.639,226.888,396.383L226.888,396.383z"/>
			</g>
			<g>
				
					<rect x="214.867" y="391.769" transform="matrix(0.9976 0.0686 -0.0686 0.9976 27.7058 -14.1121)" style="fill:#72995E;" width="8.881" height="9.076"/>
				<path style="fill:#423A64;" d="M222.195,394.994l-5.228-0.359c-0.218-0.015-0.384-0.206-0.369-0.424l0,0
					c0.015-0.218,0.206-0.384,0.424-0.369l5.227,0.359c0.218,0.015,0.384,0.206,0.369,0.424l0,0
					C222.604,394.843,222.413,395.009,222.195,394.994z"/>
				<path style="fill:#423A64;" d="M222.075,396.747l-5.228-0.359c-0.218-0.015-0.384-0.206-0.369-0.424l0,0
					c0.015-0.218,0.206-0.384,0.424-0.369l5.228,0.359c0.218,0.015,0.384,0.206,0.369,0.424l0,0
					C222.483,396.596,222.293,396.762,222.075,396.747z"/>
				<path style="fill:#423A64;" d="M220.503,398.282l-3.768-0.259c-0.218-0.015-0.384-0.206-0.369-0.424l0,0
					c0.015-0.218,0.206-0.384,0.424-0.369l3.768,0.259c0.218,0.015,0.384,0.206,0.369,0.424l0,0
					C220.911,398.131,220.721,398.297,220.503,398.282z"/>
				<path style="fill:#F05757;" d="M220.829,391.828c-0.113,0.662-0.742,1.107-1.404,0.993c-0.662-0.114-1.107-0.742-0.993-1.404
					c0.114-0.662,0.742-1.107,1.405-0.993C220.498,390.537,220.942,391.166,220.829,391.828z"/>
			</g>
			<g>
				
					<rect x="175.671" y="391.739" transform="matrix(0.9949 -0.1012 0.1012 0.9949 -39.1757 20.2601)" style="fill:#F9C5E0;" width="8.881" height="9.076"/>
				<path style="fill:#423A64;" d="M182.736,394.495l-5.213,0.53c-0.217,0.022-0.413-0.138-0.436-0.355l0,0
					c-0.022-0.217,0.138-0.413,0.355-0.436l5.213-0.53c0.217-0.022,0.413,0.138,0.436,0.355l0,0
					C183.113,394.276,182.953,394.473,182.736,394.495z"/>
				<path style="fill:#423A64;" d="M182.914,396.243l-5.213,0.53c-0.217,0.022-0.413-0.138-0.436-0.355l0,0
					c-0.022-0.217,0.138-0.413,0.355-0.435l5.213-0.53c0.217-0.022,0.413,0.138,0.436,0.355l0,0
					C183.291,396.025,183.131,396.221,182.914,396.243z"/>
				<path style="fill:#423A64;" d="M181.624,398.021l-3.757,0.382c-0.217,0.022-0.413-0.138-0.436-0.355l0,0
					c-0.022-0.217,0.138-0.413,0.355-0.435l3.757-0.382c0.217-0.022,0.413,0.138,0.436,0.355l0,0
					C182.001,397.803,181.841,397.999,181.624,398.021z"/>
				<path style="fill:#423A64;" d="M180.853,391.606c0,0.672-0.544,1.216-1.216,1.217c-0.672,0-1.216-0.544-1.216-1.216
					c0-0.672,0.544-1.216,1.216-1.216C180.308,390.389,180.853,390.934,180.853,391.606z"/>
			</g>
			<g>
				
					<linearGradient id="SVGID_00000104681645977711268760000012834077938821698482_" gradientUnits="userSpaceOnUse" x1="174.9329" y1="420.4011" x2="185.6418" y2="420.4011">
					<stop  offset="0.391" style="stop-color:#EA8F8F"/>
					<stop  offset="1" style="stop-color:#FFFFFF"/>
				</linearGradient>
				<polygon style="fill:url(#SVGID_00000104681645977711268760000012834077938821698482_);" points="183.582,425.828 
					174.933,423.813 176.992,414.974 185.642,416.989 				"/>
				<path style="fill:#423A64;" d="M183.347,419.566l-5.103-1.189c-0.213-0.05-0.346-0.264-0.297-0.477l0,0
					c0.05-0.213,0.264-0.346,0.477-0.297l5.103,1.189c0.213,0.05,0.346,0.264,0.297,0.477v0
					C183.775,419.482,183.56,419.616,183.347,419.566z"/>
				<path style="fill:#423A64;" d="M182.949,421.277l-5.103-1.189c-0.213-0.05-0.346-0.264-0.297-0.477l0,0
					c0.05-0.213,0.264-0.346,0.477-0.297l5.103,1.189c0.213,0.05,0.346,0.264,0.297,0.477l0,0
					C183.376,421.193,183.161,421.327,182.949,421.277z"/>
				<path style="fill:#423A64;" d="M181.152,422.542l-3.678-0.857c-0.213-0.05-0.346-0.264-0.297-0.477l0,0
					c0.05-0.213,0.264-0.346,0.477-0.297l3.678,0.857c0.213,0.05,0.346,0.264,0.297,0.477l0,0
					C181.579,422.458,181.365,422.591,181.152,422.542z"/>
				<path style="fill:#423A64;" d="M182.503,416.223c-0.218,0.635-0.909,0.974-1.545,0.756c-0.635-0.218-0.974-0.909-0.756-1.545
					c0.218-0.635,0.909-0.974,1.545-0.756C182.382,414.896,182.721,415.587,182.503,416.223z"/>
			</g>
			<g>
				
					<rect x="204.521" y="411.239" transform="matrix(0.9997 0.026 -0.026 0.9997 10.8852 -5.2945)" style="fill:#FAB217;" width="8.881" height="9.076"/>
				<path style="fill:#423A64;" d="M211.791,414.342l-5.238-0.136c-0.218-0.006-0.392-0.189-0.387-0.408l0,0
					c0.006-0.219,0.189-0.392,0.408-0.387l5.238,0.136c0.219,0.006,0.393,0.189,0.387,0.408l0,0
					C212.192,414.174,212.009,414.348,211.791,414.342z"/>
				<path style="fill:#423A64;" d="M211.745,416.099l-5.238-0.136c-0.219-0.006-0.393-0.189-0.387-0.408l0,0
					c0.006-0.219,0.189-0.393,0.408-0.387l5.238,0.136c0.219,0.006,0.393,0.189,0.387,0.408l0,0
					C212.147,415.93,211.963,416.104,211.745,416.099z"/>
				<path style="fill:#423A64;" d="M210.24,417.699l-3.776-0.098c-0.218-0.006-0.393-0.189-0.387-0.408l0,0
					c0.006-0.218,0.189-0.393,0.408-0.387l3.775,0.098c0.219,0.006,0.393,0.189,0.387,0.408l0,0
					C210.642,417.531,210.458,417.705,210.24,417.699z"/>
				<path style="fill:#F05757;" d="M210.29,411.237c-0.085,0.666-0.695,1.137-1.361,1.052c-0.666-0.085-1.137-0.695-1.052-1.361
					c0.085-0.666,0.695-1.137,1.361-1.052C209.904,409.962,210.375,410.571,210.29,411.237z"/>
			</g>
		</g>
	</g>
</g>
<g id="DESIGNED_BY_ME">
	<g>
		<g id="XMLID_30_">
			<g id="XMLID_49_">
				<path id="XMLID_57_" style="fill:#1D262D;" d="M385.104,477.067c-0.432,0.443-0.803,0.931-1.108,1.453l-0.465-0.241
					c-0.067-0.298-0.349-0.503-0.659-0.466c-0.331,0.039-0.568,0.339-0.529,0.67c0.039,0.331,0.339,0.568,0.67,0.529
					c0.066-0.008,0.127-0.026,0.184-0.052l0.451,0.234c-0.251,0.554-0.433,1.139-0.539,1.744l0.746,0.132
					c0.23-1.306,0.85-2.507,1.792-3.473L385.104,477.067z"/>
				<path id="XMLID_56_" style="fill:#1D262D;" d="M390.592,474.765c-0.171,0-0.341,0.006-0.51,0.017l-0.074-0.626
					c0.188-0.149,0.296-0.389,0.266-0.645c-0.046-0.393-0.402-0.674-0.795-0.628c-0.393,0.046-0.674,0.402-0.628,0.795
					c0.03,0.254,0.189,0.461,0.404,0.564l0.074,0.624c-0.714,0.116-1.403,0.332-2.06,0.646l0.327,0.684
					c0.934-0.447,1.942-0.673,2.995-0.673c0.496,0,0.993,0.053,1.475,0.158l0.161-0.741
					C391.692,474.823,391.142,474.765,390.592,474.765z"/>
				<path id="XMLID_55_" style="fill:#1D262D;" d="M397.194,477.312c0.331-0.04,0.566-0.341,0.526-0.672
					c-0.04-0.331-0.341-0.566-0.672-0.526c-0.309,0.038-0.535,0.304-0.53,0.609l-0.416,0.363c-0.418-0.43-0.889-0.813-1.408-1.139
					l-0.404,0.641c1.134,0.715,2.021,1.726,2.563,2.925l0.69-0.313c-0.251-0.554-0.567-1.072-0.942-1.545l0.402-0.351
					C397.065,477.317,397.129,477.32,397.194,477.312z"/>
				<path id="XMLID_54_" style="fill:#1D262D;" d="M390.044,484.973c-0.386,0.023-0.775,0.035-1.157,0.035
					c-0.88,0-1.733-0.061-2.478-0.179c-0.39-0.062-0.846-0.155-1.27-0.292c1.046,1.861,3.069,3.125,5.388,3.125
					c2.855,0,5.262-1.916,5.95-4.504c-0.682,0.449-1.505,0.825-2.459,1.123C392.839,484.648,391.463,484.888,390.044,484.973z"/>
				<path id="XMLID_50_" style="fill:#1D262D;" d="M390.592,476.281c-3.352,0-6.08,2.666-6.08,5.944
					c0,0.425,0.046,0.849,0.137,1.261c0.673,0.483,2.706,0.89,5.348,0.731c2.879-0.173,5.297-0.957,6.672-2.158
					c-0.006-0.195-0.021-0.39-0.045-0.582C396.244,478.514,393.65,476.281,390.592,476.281z M388.432,482.796
					c-1.02,0-1.85-0.83-1.85-1.85c0-1.02,0.83-1.85,1.85-1.85c1.02,0,1.85,0.83,1.85,1.85
					C390.282,481.966,389.452,482.796,388.432,482.796z M393.17,481.887c-0.75,0-1.36-0.61-1.36-1.36s0.61-1.361,1.36-1.361
					c0.75,0,1.361,0.61,1.361,1.361S393.92,481.887,393.17,481.887z"/>
			</g>
			<path id="XMLID_47_" style="fill:#1D262D;" d="M406.595,478.148c-0.295-0.116-0.805-0.309-1.382-0.237
				c-0.551,0.068-0.844,0.34-0.844,1.007v0.866h2.228v1.717h-2.228v5.455h-1.932V481.5h-1.34v-1.717h1.34v-0.888
				c0-1.68,0.896-2.783,2.568-2.783c0.643,0,1.157,0.122,1.59,0.308L406.595,478.148z"/>
			<path id="XMLID_45_" style="fill:#1D262D;" d="M411.298,481.48c-0.177-0.03-0.358-0.046-0.526-0.046
				c-0.895,0-1.51,0.548-1.51,1.614v3.908h-1.932v-7.172h1.873v0.785c0.451-0.673,1.14-0.977,2.021-0.977
				c0.414,0,0.848,0.128,1.094,0.337L411.298,481.48z"/>
			<path id="XMLID_42_" style="fill:#1D262D;" d="M418.965,483.358c0,0.222-0.015,0.489-0.037,0.651h-5.085
				c0.207,1.036,0.933,1.488,1.843,1.488c0.622,0,1.295-0.252,1.813-0.688l1.133,1.243c-0.814,0.748-1.85,1.088-3.057,1.088
				c-2.198,0-3.723-1.495-3.723-3.753c0-2.258,1.48-3.797,3.627-3.797C417.544,479.591,418.958,481.123,418.965,483.358z
				 M413.851,482.692h3.175c-0.177-0.918-0.733-1.436-1.562-1.436C414.554,481.256,414.021,481.804,413.851,482.692z"/>
			<path id="XMLID_39_" style="fill:#1D262D;" d="M426.618,483.358c0,0.222-0.015,0.489-0.037,0.651h-5.085
				c0.207,1.036,0.932,1.488,1.843,1.488c0.622,0,1.295-0.252,1.814-0.688l1.132,1.243c-0.814,0.748-1.85,1.088-3.057,1.088
				c-2.198,0-3.723-1.495-3.723-3.753c0-2.258,1.48-3.797,3.627-3.797C425.197,479.591,426.611,481.123,426.618,483.358z
				 M421.504,482.692h3.175c-0.178-0.918-0.733-1.436-1.562-1.436C422.207,481.256,421.674,481.804,421.504,482.692z"/>
			<path id="XMLID_36_" style="fill:#1D262D;" d="M434.964,483.366c0,2.154-1.495,3.775-3.471,3.775
				c-0.962,0-1.643-0.378-2.109-0.933v3.708h-1.924v-10.133h1.887v0.792c0.466-0.585,1.155-0.984,2.139-0.984
				C433.469,479.591,434.964,481.212,434.964,483.366z M429.287,483.366c0,1.132,0.747,1.976,1.843,1.976
				c1.14,0,1.85-0.881,1.85-1.976c0-1.095-0.711-1.976-1.85-1.976C430.035,481.389,429.287,482.233,429.287,483.366z"/>
			<path id="XMLID_33_" style="fill:#1D262D;" d="M438.067,477.437c0,0.696-0.54,1.229-1.236,1.229
				c-0.696,0-1.229-0.533-1.229-1.229c0-0.696,0.533-1.243,1.229-1.243C437.527,476.194,438.067,476.741,438.067,477.437z
				 M437.809,486.955h-1.932v-7.172h1.932V486.955z"/>
			<path id="XMLID_31_" style="fill:#1D262D;" d="M441.032,482.337l2.702-2.554h2.368l-3.479,3.375l3.501,3.797h-2.376l-2.716-2.901
				v2.901H439.1v-10.658h1.932V482.337z"/>
		</g>
		<g>
			<path style="fill:#1D262D;" d="M309.412,486.89v-1.055c-0.527,0.718-1.391,1.23-2.387,1.23c-1.846,0-3.149-1.406-3.149-3.706
				c0-2.256,1.289-3.721,3.149-3.721c0.952,0,1.816,0.469,2.387,1.245v-3.765h1.099v9.77H309.412z M309.412,484.971v-3.208
				c-0.395-0.615-1.245-1.143-2.124-1.143c-1.421,0-2.27,1.172-2.27,2.739c0,1.567,0.85,2.724,2.27,2.724
				C308.168,486.085,309.017,485.587,309.412,484.971z"/>
			<path style="fill:#1D262D;" d="M311.932,483.345c0-2.051,1.465-3.706,3.486-3.706c2.139,0,3.398,1.67,3.398,3.794v0.279h-5.727
				c0.088,1.333,1.025,2.446,2.549,2.446c0.806,0,1.626-0.322,2.182-0.893l0.527,0.718c-0.703,0.703-1.655,1.084-2.812,1.084
				C313.44,487.066,311.932,485.557,311.932,483.345z M315.403,480.548c-1.509,0-2.256,1.274-2.314,2.358h4.643
				C317.718,481.851,317.014,480.548,315.403,480.548z"/>
			<path style="fill:#1D262D;" d="M319.607,485.953l0.571-0.791c0.469,0.542,1.362,1.011,2.329,1.011c1.084,0,1.67-0.513,1.67-1.216
				c0-1.714-4.38-0.659-4.38-3.281c0-1.098,0.952-2.036,2.636-2.036c1.201,0,2.051,0.454,2.622,1.026l-0.513,0.762
				c-0.424-0.513-1.201-0.894-2.109-0.894c-0.967,0-1.567,0.483-1.567,1.113c0,1.552,4.38,0.527,4.38,3.281
				c0,1.187-0.952,2.138-2.783,2.138C321.306,487.066,320.324,486.714,319.607,485.953z"/>
			<path style="fill:#1D262D;" d="M326.477,478.072c0-0.41,0.337-0.747,0.732-0.747c0.41,0,0.747,0.337,0.747,0.747
				c0,0.41-0.337,0.732-0.747,0.732C326.814,478.804,326.477,478.482,326.477,478.072z M326.667,486.89v-7.075h1.099v7.075H326.667z
				"/>
			<path style="fill:#1D262D;" d="M329.582,488.707l0.556-0.82c0.586,0.703,1.289,0.967,2.3,0.967c1.172,0,2.27-0.571,2.27-2.124
				v-1.011c-0.513,0.718-1.377,1.26-2.373,1.26c-1.845,0-3.149-1.377-3.149-3.662c0-2.27,1.289-3.677,3.149-3.677
				c0.952,0,1.802,0.469,2.373,1.245v-1.069h1.099v6.87c0,2.344-1.641,3.076-3.369,3.076
				C331.237,489.761,330.417,489.527,329.582,488.707z M334.709,484.854v-3.091c-0.381-0.615-1.23-1.143-2.109-1.143
				c-1.421,0-2.27,1.128-2.27,2.695c0,1.553,0.849,2.695,2.27,2.695C333.478,486.011,334.328,485.47,334.709,484.854z"/>
			<path style="fill:#1D262D;" d="M342.413,486.89v-4.629c0-1.245-0.63-1.641-1.582-1.641c-0.865,0-1.685,0.527-2.095,1.099v5.17
				h-1.099v-7.075h1.099v1.025c0.498-0.586,1.465-1.201,2.519-1.201c1.48,0,2.256,0.747,2.256,2.285v4.966H342.413z"/>
			<path style="fill:#1D262D;" d="M344.932,483.345c0-2.051,1.465-3.706,3.486-3.706c2.138,0,3.398,1.67,3.398,3.794v0.279h-5.727
				c0.088,1.333,1.025,2.446,2.549,2.446c0.806,0,1.626-0.322,2.183-0.893l0.527,0.718c-0.703,0.703-1.655,1.084-2.812,1.084
				C346.441,487.066,344.932,485.557,344.932,483.345z M348.404,480.548c-1.509,0-2.256,1.274-2.314,2.358h4.643
				C350.718,481.851,350.015,480.548,348.404,480.548z"/>
			<path style="fill:#1D262D;" d="M358.35,486.89v-1.055c-0.527,0.718-1.392,1.23-2.388,1.23c-1.846,0-3.149-1.406-3.149-3.706
				c0-2.256,1.289-3.721,3.149-3.721c0.952,0,1.817,0.469,2.388,1.245v-3.765h1.098v9.77H358.35z M358.35,484.971v-3.208
				c-0.396-0.615-1.245-1.143-2.124-1.143c-1.421,0-2.27,1.172-2.27,2.739c0,1.567,0.849,2.724,2.27,2.724
				C357.105,486.085,357.954,485.587,358.35,484.971z"/>
			<path style="fill:#1D262D;" d="M364.692,486.89v-9.77h1.098v3.765c0.572-0.776,1.421-1.245,2.388-1.245
				c1.845,0,3.149,1.465,3.149,3.721c0,2.299-1.304,3.706-3.149,3.706c-0.996,0-1.86-0.513-2.388-1.23v1.055H364.692z
				 M367.9,486.085c1.436,0,2.285-1.157,2.285-2.724c0-1.568-0.85-2.739-2.285-2.739c-0.864,0-1.728,0.527-2.109,1.143v3.208
				C366.171,485.587,367.036,486.085,367.9,486.085z"/>
			<path style="fill:#1D262D;" d="M372.528,488.663c0.161,0.073,0.425,0.117,0.601,0.117c0.483,0,0.806-0.161,1.055-0.747
				l0.469-1.069l-2.959-7.148h1.187l2.358,5.801l2.344-5.801h1.201l-3.545,8.51c-0.425,1.025-1.143,1.421-2.08,1.435
				c-0.234,0-0.601-0.044-0.806-0.103L372.528,488.663z"/>
		</g>
	</g>
</g>
</svg>
